<?xml version="1.0" encoding="UTF-8"?>
<svg xmlns="http://www.w3.org/2000/svg" baseProfile="tiny" version="1.2" viewBox="0 0 636.085 1104.828">
  <!-- Generator: Adobe Illustrator 28.7.1, SVG Export Plug-In . SVG Version: 1.2.0 Build 142)  -->
  <g>
    <g id="g-Sweden_NPs-Artboard_1-img">
      <g>
        <g id="Sweden_x5F_land">
          <path id="_x32_521" d="M516.08,67.587l-11.108,27.13-9.613,8.652-5.874,15.487-5.341,15.702-2.563,7.263,12.603,26.489-1.068,6.516-3.204,13.778,4.486,5.448.747,11.749-3.951,2.884-9.399,4.272-8.331,8.118-2.563.534-8.438-6.302-8.545,3.312-10.681,27.45-4.7,7.69-2.777,6.088,4.166,18.692.428,2.136-5.234,5.02-9.506-1.709-2.029,1.175-1.389,5.981,8.117,4.913,30.014,12.177,18.158,1.922.854,2.991,6.73,3.525,2.029-5.447-1.816-7.583,2.885-2.243.427-2.35-7.797-4.914,1.389-2.35,4.913-2.029,5.341.321,3.631-1.603,2.029-3.845-4.485-4.593,5.554-.32,3.632-.214-.214-3.311,1.815-.854,4.166,1.175,1.603-.854-2.029-3.418-.962-3.952-.961-4.593-.428-5.661.748-5.234,3.204-1.602,2.777,3.952.106,2.884,3.738-.32,3.205,3.845,2.456.854-.214-2.67-3.524-3.632-1.281-6.622.961-1.175,2.777,1.602,2.35,5.661,6.195,2.35,3.524,2.991,1.389-6.302,1.281-2.35,2.137.855,5.019,1.602,1.389-3.738,3.738,1.709,2.243-.961.428-2.136,2.243.107,2.99,2.243,9.934-2.136-5.02-11.856-1.389-4.7-2.99-4.7v-2.029l-1.068-1.175v-2.67l-2.456-.106-4.486-1.389-4.272-9.72,1.068-7.05-1.923-2.777v-2.136l2.136-1.496v-2.563l2.457-.961-.32-2.563,1.923-2.457-.642-5.447.428-2.777-.855-6.302.32-2.243,1.923.534.214-2.991-1.389-2.777-3.418-3.952-.428-3.205-1.923-.961-.533-2.35-1.709-.32-3.205-3.525-.641-3.952-3.845-5.234.641-2.67-1.068-1.923.534-3.524,3.738-1.496,1.068-4.272-1.495-.534-.32-3.311.747-2.777-2.136-2.136-1.068,1.389-4.593-1.923-.962,1.389-3.097-2.563,1.922-4.059-1.067-2.136h1.495l.534-5.02-2.777-4.379-.32-8.224-.854-2.991.747-5.341,3.312-1.815-.854-4.486-2.563-.32-.961-2.991h-1.816l-.641-2.136h-2.136l-2.457-5.981-2.029-2.136Z" fill="#e7e9ea" stroke="#7e6359" stroke-miterlimit="10" stroke-width=".5"/>
          <path id="_x32_510" d="M431.485,5.102l-13.458,2.457,6.516,8.972,1.282,8.652-2.351,10.361-3.951,6.409-3.525,3.418,8.759,4.166-8.865,11.215-27.878-9.613-11.001,1.816-6.089-5.341-8.225,3.952-.214,10.467,2.884,16.77-5.98,15.487-.748,2.563-7.904-5.874-10.894-5.554-2.777,5.341-12.604,9.506-1.709,1.603-5.233,22.964-3.312,6.516-6.622,1.282-2.564,6.836,8.545,14.954,1.175,5.02-1.495,11.856-8.331,7.263-3.312,4.059-11.429,22.216-7.797,8.972,2.35,10.361.534,4.913-14.312,11.001-1.816.214-14.312.641,2.777,25.314-3.204,9.506-1.816,19.119-.32,11.322-4.379,4.273-1.603,10.253,9.613,8.652,1.815.641,1.495,2.243,2.351,2.777-.214,2.991,2.563,3.311,2.884.213,2.67,3.845.428,4.7,6.302,2.991,3.312,5.234-2.351,1.602,2.457,1.602.854,2.243,2.136-.641v2.029l4.06,3.525h2.884l4.165,3.418.32,4.913,9.293,6.195.106,5.768,5.981-.641,18.158,20.294,4.272,4.593,14.526,2.777,15.701,2.457,23.178-9.933,13.352-5.768,13.031-5.982-1.603-3.311,1.175-.854-1.495-3.204-2.67.962-3.418-16.663,9.612-27.984-18.585-14.633,21.362-14.74,5.981-3.632,1.709-1.922,6.622-14.74-8.117-4.913,1.389-5.981,2.029-1.175,9.506,1.709,5.234-5.02-.428-2.136-4.166-18.692,2.777-6.088,4.7-7.69,10.681-27.45,8.545-3.312,8.438,6.302,2.563-.534,8.331-8.118,9.399-4.272,3.951-2.884-.747-11.749-4.486-5.448,3.204-13.778,1.068-6.516-12.603-26.489,2.563-7.263,5.341-15.702,5.874-15.487,9.613-8.652,11.108-27.13-2.777,1.602-1.281-2.243.106-3.098-.32-2.777-2.564-2.137-.534-2.777-3.312-1.602-.961-.107-3.204-1.495-.107-2.136-1.602-1.068-.748,1.389-3.204-1.923-1.175-1.602-.961.854-5.769-2.563-1.281,1.496-1.389-2.35-2.35.641h-3.098l-2.991-.854-.747-2.029-.107-2.457-5.127-2.884-3.845.107.106-2.564-3.311-2.457-3.312-.961-2.456-1.175-.642-5.02-1.815-.854-1.603.961-2.136-3.952-6.943-5.981-2.35.427-2.35-2.777,1.389-1.816.534-1.495-1.709-.748-2.563-3.098-6.089-.961ZM336.423,218.19l7.477,3.631,3.525,4.272,3.951,3.952,3.525,3.952,5.127,2.563,1.923,4.699,3.097,2.991,2.885-1.388,1.922,2.243-1.175,1.816-4.699.961,1.602,5.02-1.389,4.272,8.546,10.467,4.165-.106,2.563,1.602-.534,3.418,1.709,2.029,3.418,2.563-.214,2.136-7.583-2.457-2.029-1.282-2.991.961-3.418-9.934-5.127-7.37-1.602,4.486-2.671.106-.747-4.913,1.175-2.884-.32-2.777-3.632-5.02,3.845-1.922,2.777-1.175-3.738-3.631-4.059-4.486-5.127-2.243-.428-3.632-4.272-5.661-8.331-5.021.854-2.243Z" fill="#e7e9ea" stroke="#7e6359" stroke-miterlimit="10" stroke-width=".5"/>
          <path id="_x32_482" d="M430.31,296.055l-6.622,14.74-1.709,1.922-5.981,3.632-21.362,14.74,18.585,14.633-9.612,27.984,3.418,16.663,2.67-.962,1.495,3.204-1.175.854,1.603,3.311,6.729,4.486,1.068,2.457,4.059,4.593,2.243,8.438,2.457,3.739,3.311.961,3.205,4.379v5.768l-1.389,3.204,1.389,3.312-1.068,1.815,1.389,2.991,5.341-6.942,2.99.106.427-3.845,3.739.533,5.874-.427.748-2.457,3.098-.106.641-5.768,2.777-3.738,5.127-.962,2.35-4.699,2.35-6.302,2.564-8.865.854-7.69,3.845-5.233,4.486-6.195,6.836-5.768,3.846-7.37-.214-2.777-2.777.427-1.815-6.409-3.204-3.312-3.952-.534-2.457-4.059,1.603-2.243-.214-6.622-6.302-.427-2.137-4.379,3.952.641,4.059-5.768-1.388-4.059,3.951-1.709,4.06-9.292-6.73-3.525-.854-2.991-18.158-1.922-30.014-12.177Z" fill="#e7e9ea" stroke="#7e6359" stroke-miterlimit="10" stroke-width=".5"/>
          <path id="_x30_115" d="M355.756,675.768l-1.603,14.419-1.709,5.02-2.029,7.904-3.845,3.311-7.69-1.281-1.603,1.923.748,1.709-3.312,3.204-2.99.106.641,6.516-1.603.641,1.175,5.447-1.175,2.457,3.952,3.204.428,3.738-.854,1.816,2.242,3.098-1.281,3.311-2.137,2.991,2.03,3.845,3.097,4.593,1.603,8.438,2.777,2.776,2.776-1.709,2.457-.641,4.593,2.029,5.021,4.38,3.524.106-.214-4.166-2.884-5.98.428-.748,1.281-.641.214,1.389.428,1.067,1.175,1.603,1.281,1.709,1.389.961.748-.106.533-.854.535-1.175.533-.214.107.534.106.534-.427,1.281-.534.428-.642.534-.106.427.214.534,1.495,1.709.32-.106-.213-.534.213-.534.534-.107.32.428v1.603l.214.641h.641l.214-.534-.32-.534-.106-.427.533-.748.854.106.854.642.748.427.106.748.428.534.106,1.281.642.32.533.107v.427l.428.106.427-.641v-1.602l.321-1.389.427-.107.428,1.175.641-.427.427.427-.213.534-.107.214-.106.214-.748,2.564-.106.961.214.641.427.428.428.641,1.388,1.495,1.068,1.068,1.603.854.32.748.427.32.748.214.748.747.427-.106.641-.214.214-.855.106-.854.107-.32.214.106.747.854.748.321h.641l1.068-.214.747-.107.748.748.641.106.534-.32v-.534l-.534-.854-1.175-.854-1.495-1.815,1.068-1.175.213-.961v-1.176l.214-.427.534-.534-.214-.427,1.282-.962.427-.214.214.748.106.428h.534l.962-.534.213.213v1.176l-.32.213-.747-.32-.32.534-.107.961v.854l.854.214.641.107.642.32,2.243-.214.961-.32.32-.428-.32-.32h-.961l-.107-.214.428-.32.213-.32-.641-.854-.32-.427-.748.106-.427-.106-.214-.32.214-.428.748-.106.641.32.855-.214.427-.427.214-.642-.214-.427-.534-.107-.533-.32.32-.427.641-.107.32.428.32.214.534-.214h.534l.214.534.641-.107.534.107.534-.107.747-1.388v-.428l.214-.32.855-.214.641-.641.534-.961.32-.214,1.603-1.816.747-.106.321-.534,1.281-.961,1.175-.854.854-.534,1.495-.961,2.137-3.738.534-4.272,4.593-2.563,6.302.427,2.243-1.603-.428-3.524-3.952-1.175-.213-3.418h2.884l1.495-4.273-2.564-2.136-3.845-2.777-2.991-5.02-1.923-7.049-1.602-1.176.534-5.127-3.312-3.097-.32,4.059-1.175,2.563-2.564-.748-3.952-.854-.32-4.379h2.456l1.068-2.137-1.602-3.098-3.312-2.67,3.312-.32.533-2.563-2.776-.854-2.884-4.699-1.603-6.943-1.389.748-.106,3.418,1.709,6.836-1.389,1.709-3.846-1.068-6.836-5.875-4.271-5.554-.534-5.127-3.205-2.136-4.593,2.136-2.136,3.738-2.991.641-2.136-5.554v-4.272h-9.934ZM420.377,752.671l-2.35,1.389-1.815,3.205-2.029,1.815.747.641,3.312-2.563,1.923.32.213-2.029,2.243-.214v-1.602l-2.243-.962ZM410.444,760.469l-.642.427-.32.428-1.815,1.068-.214.747-.534.641-.32.32v.534l-.32.428v.214l.641.106.32.106-.213.642-.428.641-.534-.214-.106-.534-.428-.106-.533.214-.214.747.32.214.214.32-.107.854.107.534.641.427.214.534v1.496l.641-.107.427-.747.107-.962.106-.427h.534l.32-.32v-1.068l-.32-.962.214-.641.32-.32.534.106.641-.32.32-.854.641-1.067.321-.534.641-.107v-.427l-.428-.214-.106-.854h-.534v-.32l.32-.427-.427-.214ZM420.164,769.12l-.748.32-.534.641-.32.534v.534l.214.748-.107.534-.427.641-.106.641.32.214.641-.428.106-.427.214-.428.641-.533.534-.642.107-.854.427-.106.32-.32v-.641l-.213-.428h-1.068ZM397.199,770.295l-.32.428-.106.534-.214.747.534.428.747-.854.962-.214-.106-.32-.642-.214-.427-.534h-.428ZM368.574,770.509l-.534.32-.106.214.213.427.107.854,1.068,2.243.32,1.282.747,1.709,1.068,1.602.748,1.282h.641l.32.32.534.854,1.175.32.748-.214.32-.641-.107-.641-.427-.428.106-.534v-1.175l-.213-.961-.428-.748-.106-.427-1.175-1.175-.214.213.106.534-.32.214-.427-.214-.534-.961.106-.534.428-.214h.427l.214-.213-.854-.854-.748-.321-.534.321-.641-.428-.854-.961-.534-.32-.641-.748ZM421.979,771.363l-.427.32-.107.641-.534.32.321.534-.107,1.496.214.427h.747l.214-.427-.214-1.389.748-1.175-.106-.534-.748-.214ZM403.074,772.004l-.428.32-.427-.106-.32.214.106.32.214.427.534.214.213.428.214.747v.641l-.214.748-.106.641.106.32.214.428.214.32v.748l-.32,2.029v.641l.534.32h.534l1.388.854.854-.214,2.03-.427.961-.214.534-.641.214-.854.106-.748-.428-.747-.854-.428-1.175-.427-.854.213-.32-.533.855-.214.854-.107.428.107.427-.107.428-.32v-.534l-.32-.427h-.534l-.748.427-2.67-1.709-.642-1.922-.213-.214-.855-.106-.534-.107ZM367.292,772.538l-.747.214-.534.214-.642.533.107.854.214.748.214.534.427.214.32-.107h.428l.641,1.603.427.427.642-.106.106.641-.214.534.534.214.214,1.175-.106.534v.641l.32.428.641.32,1.495.747,1.709,1.389,1.495-.106.534.106.32.32,1.176.32,1.067-.533.214-.214-.214-.534-1.281-.641.106-.32-.534-.107-.961.428-.534-.107-1.068-.427-1.389-.854-.854-.641-1.067-.214-.854-2.991-1.816-5.233h-.534ZM363.767,773.286l-.854.32-.106.641.106.428v.533l-.106.428.106.32.747.748.321.641-.107.641.428.854.641.641.534.107.32-.534-.214-.854.107-.534.214-.427v-.642l-.428-.427-.534-1.603-.534-.641-.106-.534-.534-.106ZM388.868,774.781l-.32.214v.32l.106.32.534.214.32.427v.534l.107.428.641.961.854.32h.961l.642-.32.533-.32.214-.534-.214-.32-.106-.214.214-.214.641-.106.32-.106-.106-.428-.641-.214-.534.32-.428-.106-1.175-.214-1.068-.534-.855-.32-.641-.106ZM411.405,774.995l-1.281.534,1.175,1.922.32,1.068v.854l-.107,1.389.321.214.427-.214.961-.641.642-.534.213-.748v-1.068l-.106-.854-.427-.854-1.068-.747-.428.427-.641-.747ZM420.59,776.17l-.32.106-.427.534-.214.534-.214,1.068-.106,1.067-.32.428,1.388.106.321-.32-.428-.641-.106-.428.427-.961v-.534l.534-.32-.106-.427-.428-.214ZM396.772,776.917l-1.709.107-.107.641-.427.214-.961.534-.107,1.922.107.534v.32l.533.321.962.106.855-.428.534-.533.213-.534.107-1.282,1.067.214.534.214.748-.107.427.214-.32.534-.641.427-.214.321.321,1.175-.321.32-.32.32.534.32,1.389.106.748,1.175.747.321.428,1.175,1.067.641.854.106.534,1.175,1.709.428.428-.32.534-.534.641-.32v-.854l1.068-.32.427-.534.641-.214.748-.214-.106-.427,1.922-2.35-.213-.428-2.777.854-2.884.428v.427l.534.428-.214.427h-.32l-1.282-.534-.427-.534-.854-.641-1.068-.32-1.175.32-.428-.427.214-.748.748-1.175.106-.32-.32-.32.534-.32v-.534l-1.282-1.175-.853-.321-1.496.214-.534-.214-.854.107-.747-.107ZM377.973,778.093l-.854.106-.214.427-.32.748.106.534,1.068,1.281.534.854.641.107.642-.534.106-.854.106-.32.32-.214-.106-.534h-.427l-.428-.32-.534-.961-.641-.32ZM416.105,780.977l-.534.213-1.068.854-.534.428-.32.961v.748h.427l.642-.214.641.32.534-.534.214-1.067.854-.962-.854-.747ZM413.007,787.599l-.428.534-.32.534-.854,1.602-.106.534.641-.534.641-.427.854-.32.641-.214.534-.32.214-.748h-.534l-1.068.534.214-.961-.427-.214Z" fill="#e7e9ea" stroke="#7e6359" stroke-miterlimit="10" stroke-width=".5"/>
          <path id="polygon83" d="M344.328,767.839l-1.816.533-.641,2.777-4.593-2.029-2.136.961-3.312.321-3.952,1.281-3.632-.748-3.951.854-7.584.534-.214,2.243,1.923,1.495-.428,1.923-5.02,1.175-3.418-.534-2.243-.854-2.884,2.563-2.884,3.418,5.768.428,2.884,2.136,7.69-2.564,1.709.214-1.495,2.563-3.312,1.389-4.379.427-2.777,1.176-4.486,1.602-.32,2.884-1.922,1.923-2.777-.32.106,2.35-3.845.534-2.137,3.524-.854,3.525,1.068,1.709,4.486,1.815,2.136-4.593,2.029,1.068.748,2.029,3.952,2.67,3.952,1.816,1.815,3.524,2.884,3.204,2.457.641,1.067,1.603,4.807,9.399,2.05.916,1.208,2.662,5.518,1.377,4.29.717,2.743.31,2.884.32,3.418.32,4.485-1.602-.106-1.709-3.418-.962,1.816-.961,2.35.32,2.563,1.709,1.709-2.884-2.029-1.923-2.991-2.67,2.777-1.068,2.029,2.136,2.136-.106,4.166.961,1.709-2.029,2.67.534.534-3.524,1.175.214.748.213,2.136-.32-1.175-1.281.642-5.021,2.777,2.243,1.281-.961-.961-2.137,2.029-2.136.641-3.098.854.214.748.32.427-.428.32-1.495-.106-2.457-.32-3.845-.107-.962-.641-.427-.534.427-.213,1.389-.107,1.068-.641,1.495-.428.32-.32-1.067-.106-3.205.748-1.281-.107-.427-.534-.428v-.641l.32-.32,1.068-.854-.214-.32.321-.534.32.106.427-.106.214-.32v-.854l-.214-1.176-.747-1.281-.107-.641.428-.428.32.32.214.642.213.854.32.427.428,2.243-.428,1.389v1.068l.107,1.281.641.106,1.175-.427.107-.961-.321-1.496.214-.534,1.495-.961-.106.748.32,1.067-.534.321-.32.961.214.854-.428.641-.533.961v.854l.533,1.176.428,2.35-.32.854-.107.641.534.641-.106,2.991-.214.534.32.747.962.962.961,1.922.961,2.03-.106,1.281-.534.854-.747.961v.854l2.564-.854.961-3.845.641-.641.641-2.029.854-1.068.962-.641.427-1.816-.427-2.563.641-1.923.106-.747.214-.854.32.427.214.748.32-.106.214-.321-.107-.641-.427-2.029.106-.427.534.106.107.641.427.214.32-.428v-.641l.32-.747.642-.321.961-.106.534-.214.214-.747.32-.534,1.067-.32.214-.428,1.923-.747.641-.534.214-.428-.32-.32.32-.641.534-.32.854-.107.427.321.107.32-.428.427h-.427l-.428.32-.214.534.321.32-.107.32-.427.214-.642.641v.428l.107.427.534-.213.534-.642.961-.533,2.029-.748.641-.641-.106-.534-1.923.214.641-1.176,1.175-.533.534-.321.642.107h.32l.961-1.068.428.106.106.321h.427l.534-.321.534-.32.854-2.029-.32-.214-.641.214-.641.214-1.282-.534-.534-.534.32-.961.854-.534.32-.428-.747-1.388-.641-.107-.642-.214-.747-.854-2.137-1.495-.961-.106-.32-.32-.107-.214.214-.32h.641l1.496.32.747.214.428-.214-.107-.534-.641-.214-.961-.213-.214-.534-.32-.748-.641-.214-.854.107h-1.496l-.32-.428-.106-1.281v-.962h-.32l-.748.428-1.495.748-.855.213-.748-.106-.961-.106-.748-.321-.854.214-.961.32h-.854l-.32.32-.962.214-.854.428-.747.32-.641.534-.962.533-.213.854.32.428v2.243l-.32.641-.321-.641-.32-.854-.747-.428h-1.496l-.961.214-.854-.32-.854.748-.854-.855-.427-.854-.962-.534-1.175-.32v.533l-.854.107-.427-.32-.748.32-.214.747.214.428.32.32.106.534.321,1.709.533,1.495-.106.534-.641-.106-.32-.642-.748-1.709-.534-1.602-.427-.641h-.962l-3.204-1.709-1.175-1.389h-.534l-.961-.748-.428-.106-.32-.534-.641.214.106.641.428.427-.107,2.029.214.534,1.389,2.243.214.641-1.389-.641-.962-.427h-1.175l-1.175.427-.748-1.281-1.175-2.884,2.137-1.602-.428-2.457-1.175-.32,2.029-2.67-1.815-3.952-5.447-1.281-1.068,1.709,1.389,4.806-2.991.214-1.602-5.127,1.175-2.777-2.35-1.388ZM404.035,795.716l-.106.107-2.029,2.456-1.709.748-.107.32.321.106v.321l-1.068,1.495.106.32.534-.107.106.321-.213.213-.321.428-.32.427.107.962.854.427.961-.32.214.641h.534l.427-.641.214-2.884,1.068-1.068v-1.067l.961-.854.32-.748-.854-1.603ZM391.859,802.979l-1.176.641h-1.281l-.428.214-.32.534v.106l.107.641-.107.534-.854.854-.106.32.106.962-.213.533.213.107.642-.214.32-.32.32-.854.427-.214.32.32.107.642.427.32.748-.214.427-.428-.533-.961-.107-.641.428-.32.427.213.32-.32-.106-.641.32-.641.641-.107.534-.32.214-.427h-.534l-1.281-.32ZM399.548,806.61l-.533.321-.428.641-1.281.854-.748-.214-2.457,1.495-.427.32-1.175.962-.962.855.107.641.32-.106.641-.32.641-.642.214.32v.642l1.175.106.428-.32.427-.428.534-.32.748.214,1.281-.748-.427-.533-.641-.428.32-.534,2.136-1.281.32-.32v-.854l-.214-.321Z" fill="#e7e9ea" stroke="#7e6359" stroke-miterlimit="10" stroke-width=".5"/>
          <path id="_x31_980" d="M331.724,712.083l-5.981.428-2.029.854-.107,2.456-3.632,2.457-1.709,3.098-7.369.747-1.496-.747.642-3.204-2.563-1.602-2.137-.32-1.281-3.204-2.137-.642-2.884,2.457-4.486-1.068-.961,2.563-1.603,1.068.107,2.67-2.137,4.166,1.816,2.563-1.282,5.768-2.67-1.068-3.205-.213-1.922,4.272-3.204,3.631-2.991-5.447-4.272-4.913-3.632-2.777-2.243-3.524-1.922.32-6.836-4.699-2.137.213-2.99,1.923,1.068,7.37-12.177-2.029.854,3.738-4.807,1.709,1.282,2.884,2.136.961-.641,6.089.747,4.379-2.242,1.389,2.136,4.059-.748,2.777,1.389,6.408.107,4.7,6.942,1.922,2.777,2.137-1.068,4.699,2.243,4.38,2.029-1.603,5.981.428,2.35-2.884.16-4.7,2.697-.507,1.041,3.711,2.964-1.949,4.7,2.457,5.421.24,5.34.32,1.549,1.869,2.901-.317,2.786,7.153,1.309.187,1.495,2.644,2.351-1.175,2.884-3.418,2.884-2.563,2.243.854,3.418.534,5.02-1.175.428-1.923-1.923-1.495.214-2.243-5.768.534-1.175-3.418,4.699.107,2.67-1.603,3.418,1.603,4.807-1.176,1.603-2.136,2.564-2.67-1.389-2.351,2.777-1.388,2.884,2.029,2.35,3.204,3.204-1.389,1.068-1.815,3.418.32-1.603-8.438-3.098-4.593-2.029-3.845,2.137-2.991,1.281-3.311-2.243-3.098.854-1.816-.427-3.738-3.952-3.204,1.175-2.457-1.175-5.447,1.603-.641-.642-6.516h0Z" fill="#e7e9ea" stroke="#7e6359" stroke-miterlimit="10" stroke-width=".5"/>
          <path id="_x32_303" d="M246.275,320.728l-4.059,5.341-19.653,36.85,8.438,6.302,5.554,1.923,1.495,1.922.107,4.914.641,16.342-7.37,14.633-8.759-3.098-14.633-3.525-3.524-.854-10.895,3.205-7.69,5.874-11.216,16.769-2.456,2.884-1.068,4.38-5.341,5.661,1.816,9.078-9.293,15.595,7.156,22.11-4.486,6.942,20.295-4.807,15.167.854.053-.054,9.88,1.603,3.418,1.175.855,7.797,12.551,11.216.106-.054.214.374.16.106,1.923,2.885-.642,3.738,3.952.907v.054l.268.053.053.428h.054l1.121,8.811,5.341,8.225,5.875,7.264,4.165-.214,3.738,1.709,9.133-9.667-.854-4.059h2.029l-1.175-5.981-.107-4.699,4.486-.854v-.214l.054.214,5.874.747,2.243,2.457,4.272-2.99,12.391-1.709,13.458-6.623,5.981,1.389,4.485-1.923,4.272,1.282.962-5.341,2.67-3.738,6.73-8.865,12.71-1.923-15.061-18.051-17.089-15.273.213-4.914-2.776-1.495-2.563,1.068-.428-5.555v-.053l.641-3.685v-.053l-6.836-8.705v-.054l2.885-1.068,3.845,2.297-.588-11.856-1.709-2.938,2.083-2.403-.267-17.09-19.775-29.637,4.95-5.397-4.134-3.524v-2.03l-2.137.641-.854-2.243-2.456-1.602,2.35-1.602-3.312-5.234-6.302-2.991-.427-4.7-2.671-3.845-2.884-.213-2.564-3.312.214-2.991-2.35-2.777-1.495-2.243-1.816-.641-9.612-8.652h0ZM231.428,463.748l5.875,1.815,4.807,2.029,3.631,3.205,2.457-.748,3.952,2.457-4.272-.534-.534,2.136,2.35,2.029,1.815.854-2.136,1.068-2.67.961.427,4.7.961,5.607v.054h-.053l1.175,8.437-1.709,6.195-2.243-1.389-2.029-6.088,2.35-.534.107-5.555-1.816-6.194h.054l-.748-3.846-3.418-2.777-4.272-1.602-2.776-2.671,3.631-.106-4.913-9.506h0Z" fill="#e7e9ea" stroke="#7e6359" stroke-miterlimit="10" stroke-width=".5"/>
          <path id="_x32_031" d="M166.167,545.352l-7.69,42.19,9.72,13.03,5.555-.213,9.826,17.41-1.709,8.972-2.029,4.7-3.311,2.456-1.175,7.584.854,3.952,17.41,19.974.961,5.447,2.136.106,1.496,4.913,4.807,8.865,2.136,6.409,2.777,2.136,4.807.534,5.768,11.963,4.593,6.516,18.265,13.352,12.177,2.029-1.068-7.37,2.99-1.923,2.137-.213,6.836,4.699,1.922-.32,2.243,3.524,3.632,2.777,4.272,4.913,2.991,5.447,3.204-3.631,1.922-4.272,3.205.213,2.67,1.068,1.282-5.768-1.816-2.563,2.137-4.166-.107-2.67,1.603-1.068.961-2.563,4.486,1.068,2.884-2.457,2.137.642,1.281,3.204,2.137.32,2.563,1.602-.642,3.204,1.496.747,7.369-.747,1.709-3.098,3.632-2.457.107-2.456,2.029-.854,5.981-.428-3.312-2.884-.428-4.379-1.602-.854-.428-2.991-2.242-1.815-4.7-1.282-4.059-8.011-.962-2.35-1.709-.534-3.418-6.729,3.739-1.175,3.097-4.807-.747-2.671,2.777-2.136.961-3.846-6.302-7.049-3.846-9.72-8.011-.854-6.729-3.846-2.991-5.661-.961-7.263-16.021-23.071-7.354-16.817-5.885-9.156-3.185-4.079-3.524-1.937-6.356,9.479-1.148,12.791-3.311,3.418-2.137-2.137-5.874-1.709-8.225-.427-3.418-1.389-10.468-1.923-1.815,1.282-2.137-2.991.428-3.524-3.418-7.263-7.37-8.973-1.602-7.37-4.272-4.807-3.418-4.913-5.127-6.942-6.623.32-11.429-3.738ZM249.266,648.744l3.204,4.7h2.243l6.194,6.302,2.885-1.816,2.136-1.922,3.204,2.243-2.456,2.776-2.991,1.175-.641,6.089-2.243-5.661-6.73,3.311-2.35-3.845-3.952-5.233,2.991.106,1.815-.961-1.923-2.029-2.884-.321-.427-2.99,1.923-1.923Z" fill="#e7e9ea" stroke="#7e6359" stroke-miterlimit="10" stroke-width=".5"/>
          <path id="_x32_101" d="M347.532,643.831l-9.826,1.281-3.846.428-6.088.588-5.447-1.336-7.264.107-6.516,3.952,3.846,9.72,6.302,7.049-.961,3.846-2.777,2.136.747,2.671-3.097,4.807-3.739,1.175,3.418,6.729,1.709.534.962,2.35,4.059,8.011,4.7,1.282,2.242,1.815.428,2.991,1.602.854.428,4.379,3.312,2.884,2.99-.106,3.312-3.204-.748-1.709,1.603-1.923,7.69,1.281,3.845-3.311,3.738-12.925,1.603-14.419-5.341-2.884,4.913-4.7-4.272-4.165,1.175-4.059-4.379-7.798,2.243-3.952-2.991-2.35.428-2.029Z" fill="#e7e9ea" stroke="#7e6359" stroke-miterlimit="10" stroke-width=".5"/>
          <path id="_x31_861" d="M269.667,770.295l-2.884,2.029-1.068-3.845-2.776.641-.107,4.7-2.35,2.884-5.981-.428-2.029,1.603,2.029,3.524-9.613,1.923-12.176,23.498,7.529-2.35,2.19,15.755,6.408,3.044.534,3.952,1.495,3.524,3.952-2.457,2.457-5.554,2.67-1.709v4.166l1.389-.428.214,2.777-1.709,3.524,3.738-2.136.854-2.991,1.602-3.098,1.923-2.456,2.243-.107,2.457-2.99,3.738,2.243,2.029-.962,1.281,2.243.854-3.631,3.418.106,1.816-2.777-1.496-2.67,4.166-4.593-1.068-1.709.854-3.525,2.137-3.524,3.845-.534-.106-2.35-4.7-.534-2.136-3.098,1.602-2.456-3.204-4.166-5.447,1.923-5.768-2.351-.106-2.029,5.66.214,5.234-1.709,7.21.694-2.818-7.197-2.916.364-1.583-1.872-10.787-.534-4.7-2.563Z" fill="#e7e9ea" stroke="#7e6359" stroke-miterlimit="10" stroke-width=".5"/>
          <path id="_x31_782" d="M167.983,641.481l-9.827,2.136,3.632,10.254-.427,3.525,1.815,8.224,4.272,7.69-.32,3.846,3.311,6.516-.106,8.651-4.699,6.73,1.067,11.215-1.602,4.165-2.671,7.264-2.776,2.029-1.389,3.524-5.127,2.243-2.671,2.884-4.165.534-3.312-1.389-4.593,4.166,2.457,5.02.106,4.806-2.457,2.671-1.281,2.776-4.593.854-2.137,3.952,1.496,7.904.854,8.331,1.281,3.418-.32,8.545,10.468,3.632h7.477l3.204,1.389,4.593,3.631,4.486,1.068,2.777-4.699,2.884,1.495,2.136,2.029v6.622l5.234-1.815.213,3.204,3.632-.641,1.068,3.204,2.136.106.962,7.798,4.272,2.564,1.922-1.709-1.067-12.177-2.03-8.117-2.35-6.089,2.243-2.243v-5.874l1.282,1.923,1.495,1.709,2.564-.32-1.068-2.351,1.282-1.709,3.845-.534,2.243,2.777,2.563,5.661,3.098-2.99,1.175-3.739,3.632-1.602,2.029,3.418,2.776-2.457,2.885,2.457,2.456,1.602,3.418-.106,1.282,7.263-2.777,5.448-2.457,4.699-.106,4.379,1.389.534,1.815-3.098,2.991-2.242,2.136,1.815-1.389,3.524,6.089,3.418,12.176-23.498,9.613-1.923-2.029-3.524-2.243-4.38,1.068-4.699-2.777-2.137-6.942-1.922-.107-4.7-1.389-6.408.748-2.777-2.136-4.059,2.242-1.389-.747-4.379.641-6.089-2.136-.961-1.282-2.884,4.807-1.709-.854-3.738-18.265-13.352-4.593-6.516-5.768-11.963-4.807-.534-2.777-2.136-2.136-6.409-4.807-8.865-1.496-4.913-2.136-.106-.961-5.447-17.41-19.974-.854-3.952-2.351.747-5.02-.747Z" fill="#e7e9ea" stroke="#7e6359" stroke-miterlimit="10" stroke-width=".5"/>
          <path id="_x31_447" d="M226.622,803.406l-4.807,2.884.748,3.846-.854,4.379-1.709,3.738-2.457,2.457-2.136-1.495-6.942-1.389-.854,2.563,2.35,2.456.427,2.991,1.816-1.282,2.99-1.067,1.495.854-1.175,1.922-3.845,3.205-2.777.747h-3.738l-3.524,2.137-4.06,1.281-3.738,2.563-1.175,4.059-.854,3.632-2.029,1.389-3.204-.534-1.603-1.281,2.457-7.37,1.602-5.021-1.709-1.495-2.776-.641-4.593,7.156-2.777,2.777.106,1.495-2.563,4.059-5.02.748-3.098,3.631.106,1.816-2.99,1.175.961-4.7-2.456-.32-3.632,5.341-2.35-.534-1.496,1.068-3.791-.908-7.21.694-1.709,3.204.747,3.312,1.068.854.214,1.068,2.563,1.495-2.884,3.524.106,1.389-.214,2.563-.32,10.468-1.389.747-1.067,2.991.213,1.068-.533.855-1.496,1.815-3.204,6.408.106,2.137v1.068h.054l-3.098,4.913-1.068,1.121-1.067-1.121-1.282.267-.48,1.869-.748.268-.747.694.214.427,1.976-.427.641.427,1.229-.481h.908l-3.098,1.763-.32.641v.641l1.175,3.525.534.106.747-1.282.32.748-.213,3.524-.268,1.122v.694l2.777.106.961,1.068,4.38-.748,2.884-.961,3.418-2.029,2.35,2.99-.748,2.991.642,1.389.32,1.602-.428,1.816.32.961,1.176.427.533.748.534,2.67-.961,5.341,1.389,1.815,2.563,7.317,4.539-.962,2.884,1.763,7.477-5.233,6.996,8.865,5.127,3.204,2.137-2.777.961-3.845,1.282-1.709,1.923.747,1.067-4.379,3.312-.748.747-1.495,1.923-.427v-1.923l2.457-1.282,1.068-2.776,5.127-7.69,1.922-1.389.748-2.137-.32-3.631.214-1.709,2.029-.962.641-2.136-1.175-3.098.214-2.243,1.495-2.243.106-6.302,3.632.748,1.175-2.671,2.777,1.176,1.922,3.311,1.496.32-.107-3.738,1.816-1.281,1.602.747,1.496-1.495.32-5.768,1.815-3.098,1.603-5.341.961-6.302.32-3.204,1.495-3.204,1.282-5.769,2.99-3.631,2.029-4.486,2.351-5.233,1.709-.962,1.815-4.699.32-3.098.214-3.418,1.923-1.815,3.418-1.603,2.136-2.563-1.495-3.524-.534-3.952-1.709-2.35-6.836-16.449-7.584,2.35-6.088-3.418h0Z" fill="#e7e9ea" stroke="#7e6359" stroke-miterlimit="10" stroke-width=".5"/>
          <path id="_x31_492" d="M144.271,787.599l-10.468-3.632-2.67,2.029-.534,6.622.747,1.496-3.098,4.593-1.602,3.952-.106,2.67-1.282,3.312,2.137,2.67-.107,2.136-.747,1.709.533,1.176,2.457.533.641,3.418,1.709,1.389-.214,2.35,3.525,2.243-.855,4.807-2.884,2.137-.107,5.981,2.671,1.602-1.603.962.854,2.67.961,2.029,1.709-.961,4.486,1.922,2.651,2.911.555,2.053,7.226-.655,2.773-5.719,3.334-2.012,2.688-3.2,1.922-3.418,2.457-2.99,2.029-1.816-.748-1.388-4.272-.428-1.815-2.243-.106-4.593,2.99-4.593,3.525-5.341.855-5.981,1.602-2.456,3.738-6.409v-6.622l-2.136-2.029-2.884-1.495-2.777,4.699-4.486-1.068-4.593-3.631-3.204-1.389h-7.477Z" fill="#e7e9ea" stroke="#7e6359" stroke-miterlimit="10" stroke-width=".5"/>
          <path id="_x31_430" d="M112.655,792.085l-1.603.961-1.068.534-1.708.32-3.739,5.982-.106,3.524.32.962,1.068,1.602v.748l-.534.214-.961-.428-.214.32-.106,1.175,1.388,4.166.214,1.815-.641,6.943,2.884,5.34,1.815,7.05-1.815,2.457,1.815,7.69.107,1.175.213,1.067-.32.962-.855.534-.533-.107-.214-1.175-.855.214-.32,1.068v1.389l.106,1.067.214.962-1.175,1.389.213.747h1.389l1.495-.854.321-.854.641.107.427.747.962.428,1.281-1.175-.106,2.456,1.281-.32-.427,1.709-.428,1.389.748.534.961.214-.32,1.388-.747.748.106.534,1.709-.214.961-.854,1.068-1.495.961-.748v2.137l-.641.961-1.068,1.175-1.067.748-1.282.214-.641.961-1.175,1.923.32.427h1.815l2.029-.427,1.496-.642,1.067-1.281.748-1.495,1.282-.214,1.067-.748,1.068-1.175,1.068-1.815,1.602.106.428-.854-.748-.961,1.603-.106,1.815.641h2.563l-1.709,1.923-.32.961,1.282,2.136.747,1.709v1.816h1.282l-.107,1.281-1.067,1.068-.854.32.213,1.815-.213,2.03-.748,1.281-.854,1.175-.748.962.107,1.709.213,1.815-.106,1.709-.641,1.923-2.137,2.242-.32.854v1.068l.534.854-1.495,2.671-.428,1.495-.533,1.068-.854,1.067-.321,1.068.534.854.854.854.32.641.214,1.709.428.32,1.281-.213h.854l-.534,2.51-1.495.427-1.495.642-.855,1.175v.747l.214.534.641,1.175.747.214h.534l.534-.214.214-1.067.641-.214.641.32.642,1.282h.053l.48-1.122.694-.214.481-1.869,1.281-.267,1.068,1.121,1.068-1.121,3.044-4.807.053-.106v-.054l-.16-3.204,3.258-6.355,1.496-1.815.533-.855-.213-1.068,1.067-2.991,1.389-.747.32-10.468.214-2.563-.106-1.389,2.884-3.524-2.563-1.495-.214-1.068-1.068-.854-.747-3.312,1.709-3.204-.641-2.136-2.671-2.884-4.486-1.923-1.709.961-.961-2.029-.854-2.67,1.603-.962-2.671-1.602.107-5.981,2.884-2.137.855-4.807-3.525-2.242.214-2.351-1.709-1.389-.641-3.417-2.457-.534-.533-1.175.747-1.709.107-2.137-2.137-2.67-6.088,2.563-2.029-1.496-.214-1.922.854-7.478-3.418-7.689-1.709-.534h0ZM126.541,858.308l-.855.106-1.389.748-.214,1.175.106,1.175-.32.854h-.534l-1.067-.214-.855.214-.962,1.068-.854,1.067-1.175.642-.854.533-1.281.428-.642.534-.854.534-1.067-.107-1.068-.32-1.175,1.495-.854,1.923.534-.214.641-.961.854.214.214.854.747.854.854,1.175.641,1.068-.32.961-.641.961-.427.428.641.641.855-.747.427.641.642.32.854-.214.855-.961.747-1.175.32-1.175.642-.854,1.388-.854.962.533,1.175.854.748.642-.214,1.067.961.214.854-1.175.854-.534.428-.106,1.175-.107,1.495-.106.427-1.389.214-2.029-.106-1.603.32-1.281.534-1.389-.32-1.068-.748-.961-.748-.748-.747-.641-.32-1.389v-1.389l-1.495-.213ZM126.967,873.367l-.106,1.068-.214,1.068.427-.106.534-.748.107-.855-.748-.428ZM126.113,873.688l-.641,1.281.854.106-.214-1.388ZM122.588,874.115l-.428.32-.854,2.029-.534.534-.854.214-2.35-.428-.641.214-.534.428-.534,1.067v.748l.32.641.748.214,1.709-.106.106.641-.106.534-1.175.106-.428.214-.214.747.107,1.068.214.534.32.214.747.427v1.496l.214.641h1.389l.427-.748.428-.854.534-.427.961-.32.641-.428v-.534l.428-.961.32-1.389.854.106.106.962h.642l.641-.534.427-1.175.107-1.923-.107-1.389-.747-.854-1.282.854-.747-.427.534-.854.213-.854-.854-.642-.747-.106ZM121.2,889.068l-1.709.321-1.495,2.029,1.281.961,3.098-1.495.641-1.709-1.815-.107ZM118.636,897.613l-1.175,3.952.747.32,1.816-2.35-1.389-1.923ZM121.947,900.604l-.747.32-.854.641-.107,1.495-.747-.106-.107.748.321.32-.107.747-1.068-.106.107.748,2.029,1.602.427-.32.321-.854v-1.389l.533-1.495.534-.961-.534-1.389Z" fill="#e7e9ea" stroke="#7e6359" stroke-miterlimit="10" stroke-width=".5"/>
          <path id="_x30_980" d="M408.62,897.485l2.35-.855,2.03-.641.747-3.312,1.923-1.709,2.244-1.281,2.883,6.195,1.816-5.341,1.709-1.815,5.981,1.175,2.136-1.815.747-3.204,3.099-2.03,3.523,1.176,2.351-.321.748,1.709-1.176,1.39-3.097.105-2.564.962-.962,1.175.854,2.03-1.495,3.204-2.67,1.709-1.39.96.214,2.991-2.669.107-.214,4.913-3.204.214-2.244-1.495-.319,4.272-1.282,5.66,1.495.962-.427,4.806-1.282,2.457,1.923,3.738,2.777,1.922,2.669.642-1.281,3.418-3.311,1.176-2.671.854-2.883,4.699.105,2.456,1.817,1.176-1.496,2.883-4.807,1.816-.642,1.709-5.981,4.7,1.709.854-4.378,3.418.214,5.127,2.35.96-2.991,4.38-4.699,3.311-2.885-.214,2.35-5.554.321-3.311,2.777-1.816,1.068-2.35-.535-1.815-2.67,2.242-.962-.533.535-4.699-1.923-1.39-1.281-1.174v-6.09l-2.351-.746.533-3.099,2.137-2.564.535-5.127-1.604-2.028-.96-4.167-.963-3.845.642-3.097,3.312-4.167,2.35-1.067,2.777-4.06,2.991-5.981,1.281-5.019,2.242-1.923Z" fill="#e7e9ea" stroke="#7e6359" stroke-miterlimit="10" stroke-width=".5"/>
          <path id="_x30_861" d="M317.625,868.24l-2.777,2.777-4.485-1.175-2.65,10.527-3.972-.58-.642,4.151,3.418,5.021-1.923,1.495,2.03,7.05-2.03.214-4.165,3.845-2.243-1.602-3.098,1.602-.641-2.563-4.593-1.495-3.738.854.427,2.35-2.35,2.137-.854,2.776-2.563-.427-1.175,1.603-.534,3.631-5.554-1.281-6.089.641-1.709-4.059-1.495-5.341.534-1.923-2.991-3.631-.854-3.098,1.389-3.312,1.496-1.815-.962-2.563-1.815-6.836-2.029-1.068-1.603,3.204-5.875,1.175-.32-2.456-5.981.961-2.776-1.175-2.991,4.807-.854,3.312-4.165,2.67-2.991,5.233-.854,3.738-.427,4.593-2.137.214-1.281.962-1.175-.854.427-3.205-.641-3.311-1.175-1.068-1.496,1.495-1.602-.747-1.816,1.281.107,3.738-1.495-.32-1.923-3.311-2.777-1.176-1.175,2.671-3.632-.748-.106,6.302-1.495,2.243-.214,2.243,1.175,3.098-.641,2.136-2.029.962-.214,1.709.32,3.631-.748,2.137-1.922,1.389-5.127,7.69-1.068,2.776-2.457,1.282v1.923l-1.922.427-.748,1.495-3.312.748-1.067,4.379-1.923-.747-1.282,1.709-.961,3.845-2.136,2.777-2.137,1.603.106,2.563,1.603,5.126,8.545,13.031-1.923,1.816.854,5.98v6.303l1.923,2.456,1.175,3.952.534,2.243,1.175,1.281,1.175,4.486-1.281,3.311.961,1.495-.748,1.709,1.709,1.709,3.525.214,5.661-1.282,3.738-1.602,3.524.106,2.67-1.389h3.846l1.709-2.777.427-2.136,1.709-.107,1.389,2.03,4.486,1.388.748-.961,7.049,2.029,4.7,1.923,3.204.534,3.098,4.059,1.815.854,4.059.748,3.418,1.495,1.709-1.495,2.137-4.38,2.35-1.709h4.7l.32,1.709h2.563l.427-2.029,2.137-1.389,1.922,1.709,1.816-2.029,2.67-.961,3.738,1.389.428-2.563,3.204,1.175,1.068,2.456,2.136-.106.748,2.137.961,1.922,2.35.748,2.777,5.341,2.457,1.709,4.165-.214,1.923,1.389,2.777-1.389,1.389-6.302,1.602-5.341,1.816-1.923,1.067-3.631,1.603-.642-.106-3.738.534-2.35,1.922-3.845,3.205-.748,1.815-8.011,1.815,1.602,1.389-1.602-1.175-2.029-1.603.961,1.282-7.156.961-4.272-.213-3.524,1.495-4.272,3.845-5.768-3.632-1.709-1.602-5.127,1.495-3.098-.747-3.846,3.311-2.563-.534-4.272,2.991-.106,1.602-4.273,1.389-4.7-.961-2.884-3.846-4.593,3.846-.427,1.495-1.389v-2.563l-2.777,1.068-1.495-2.029,1.175-3.098,2.457-1.496-.107-3.845-3.097-2.137-3.632-5.233,2.777-4.165,3.631.747,2.457,2.029.855-4.699-.855-6.409-1.735-3.685,2.59-1.709-3.296-3.343-.683-2.479-9.587-6.836-4.913.106Z" fill="#e7e9ea" stroke="#7e6359" stroke-miterlimit="10" stroke-width=".5"/>
          <path id="_x30_885" d="M349.347,936.493l-1.709,1.495-2.35,3.418-.32,3.952-.428,2.563-1.708,1.067.533,2.671-1.067,4.058-1.923,4.166-1.282,3.311-1.709,1.709-1.388,3.846-1.282,4.913h-2.563l-1.709,1.495-1.495,4.7-2.243,4.593-2.67,6.729-.748,4.166-2.243,3.952-.32,3.204.32,8.117.855.428-.214,12.604.854,1.389-.32,4.059,2.884-2.563,1.389-4.486,2.777-6.728-.641-2.67,1.815-4.38,1.282-4.913.32-3.632,2.243-2.35-.321-1.709.748-4.379,3.204-11.75,2.029-.533,1.176-2.884-.107-2.457.962-1.815.106-5.448,2.35-2.136-1.068-2.563,1.709.106,1.496-5.447,2.136-4.699,1.068-1.068v-4.807l-.641-1.815,1.067-2.671,2.137-1.175-.748-3.098-1.281.642-.962-1.175Z" fill="#e7e9ea" stroke="#7e6359" stroke-miterlimit="10" stroke-width=".5"/>
          <path id="_x31_081" d="M281.843,1004.425l-.428,2.563-3.738-1.389-2.67.961-1.816,2.029-1.922-1.709-2.137,1.389-.427,2.029h-2.563l-.32-1.709h-4.7l-2.35,1.709-2.137,4.38-1.709,1.495-3.418-1.495-4.059-.748-1.815-.854-3.098-4.059-3.204-.534-2.457,4.379-2.563.642-1.068,4.059.962,2.776.854,2.563.32,3.525,2.243.961,2.563-.427.961,2.029.748,9.079-1.709.854-.428,2.242,2.671,2.243,2.456,1.282,2.777.214,2.563-2.885-2.67-2.884-1.603-3.631-.106-3.312,2.35.534,1.815.106,3.312-.427,4.486-.214,3.097-.106,1.709-1.923,1.603,1.923,2.99.106,3.952-.641,1.816-.641.961,3.417,3.098-1.708,1.068-2.03,2.029,2.243,1.709-1.709,2.884-1.067,1.495,1.067,4.379-.747,2.243,1.922-.747,2.351-2.777,2.67,2.029.748,3.418-2.03,2.884,2.563,2.671-5.874,1.922-1.282,2.35-4.913,1.816-6.942-2.777,1.389-1.923-1.389-4.165.214-2.457-1.709-2.777-5.341-2.35-.748-.961-1.922-.748-2.137-2.136.106-1.068-2.456-3.204-1.175Z" fill="#e7e9ea" stroke="#7e6359" stroke-miterlimit="10" stroke-width=".5"/>
          <path id="_x31_256" d="M220.961,1002.074l-1.709.107-.427,2.136-1.709,2.777h-3.846l-2.67,1.389-3.524-.106-3.738,1.602-5.661,1.282-3.525-.214-1.709-1.709-1.602,1.389-1.816-.214-3.417,2.029-2.671,2.563-1.923,1.923-2.136-1.816-7.05-1.175-1.923-.533-2.029-.748.32-5.447-2.563,1.068-2.137-1.603-2.884-1.282-2.137.854-2.242,1.816.213,3.098,2.351.747,2.136,1.923.961,2.884,2.137,2.243,1.175,2.563-.961,2.35-1.709,1.175-1.068-.32-1.495-.534h-1.282l-1.068-1.709-3.418-2.029-3.951-2.67-2.03.214,1.816,1.495,1.389,2.563.534,2.456.747,4.914.428,1.389,1.495,1.709,1.709,2.776,2.136,2.671,1.709,3.311.748,3.952,2.35,7.264,3.098.747.854,2.991.214,4.059-.534.427-.641.854.641,1.175,1.281-.641.534,1.175-.534.854.748.32h1.068l1.602,1.282.748.534.534,1.602v.642l-.641,1.602v1.389l-.32.961-1.816.428-1.389.961-2.35,1.389-.854.854v1.495l.214,2.03.855,2.136.534,1.389.427,1.389-.214,1.815-.641,1.816-.534.961-1.067-.214-1.282-.534-.427-1.709-.214-.534-2.35,4.807,2.67-.961.854.214.641.747h.748l.214-.641.641-.32,1.389-.32,1.602,1.175,2.137,1.495h1.068l1.602-.32,4.166,1.068,2.243,1.281,1.067.428,1.496-.214.747.854,2.029-1.282,1.816-.106,1.495-1.175,1.495-.534,4.913.214,2.563-3.098h2.351l1.602-.961,5.127.427,2.991-.641,1.815.748,4.593,3.524,1.923-.214,3.952.641.854-1.495,2.35-4.272,3.312-3.524,1.495-2.991-.534-3.524-2.35-2.137-.748-4.593-2.67-1.815-.641-5.233.533-5.447,3.312-5.981,1.923-.962,1.495-3.524,3.418-2.029,1.709-3.204,3.524-1.176.428-2.242,1.709-.854-.748-9.079-.961-2.029-2.563.427-2.243-.961-.32-3.525-.854-2.563-.962-2.776,1.068-4.059,2.563-.642,2.457-4.379-4.7-1.923-7.049-2.029-.748.961-4.486-1.388-1.389-2.03Z" fill="#e7e9ea" stroke="#7e6359" stroke-miterlimit="10" stroke-width=".5"/>
          <path id="_x31_315" d="M145.766,914.276l-3.418,2.029-2.884.961-4.38.748-.961-1.068-2.777-.106v2.67l.107,2.137-1.175,3.097-.428,1.496.214,1.281,1.389,3.846.641,1.389,1.068.533.747-.427.534-1.175,1.068-3.846.641-1.922.854-.855.854.533.32,1.709-.106,3.739-1.175,2.884.534.747,1.495-.32.641.748.32,2.67.214,2.137-2.136,1.067-.214,3.098,2.563,3.311,2.029,3.524.32,4.486,1.282,3.204,1.922,1.389,1.175,2.777v2.136l-.747,2.457,2.136,2.67,3.204,1.282,3.312,2.67,2.457,2.243-.214,3.845,1.389,4.272,1.389,3.312,1.709,3.738,2.456.106,2.457-1.495,2.563,1.495,1.175,4.06.534,3.524-.32,3.845-.854,2.351-1.496,2.029-.32,5.447,2.029.748,1.923.533,7.05,1.175,2.136,1.816,1.923-1.923,2.671-2.563,3.417-2.029,1.816.214,1.602-1.389.748-1.709-.961-1.495,1.281-3.311-1.175-4.486-1.175-1.281-.534-2.243-1.175-3.952-1.923-2.456v-6.303l-.854-5.98,1.923-1.816-8.545-13.031-1.603-5.126-.106-2.563,2.137-1.603-5.127-3.204-6.943-8.919-7.477,5.287-3.098-1.815-4.379,1.015-2.563-7.317-1.389-1.815.961-5.341-.534-2.67-.533-.748-1.176-.427-.32-.961.428-1.816-.32-1.602-.641-1.389.747-2.991-2.35-2.99Z" fill="#e7e9ea" stroke="#7e6359" stroke-miterlimit="10" stroke-width=".5"/>
          <path id="path8590" d="M292.098,367.308l-2.563,1.389-2.853.035-4.944,5.359,19.813,29.693.267,17.09-2.083,2.403,1.709,2.937.588,11.856-3.846-2.296-2.884,1.067,6.836,8.759-.641,3.738.428,5.555,2.563-1.068,2.776,1.495-.214,4.913,17.09,15.274,15.061,18.051,5.768,7.37,9.399,10.254.962,2.67,4.593,5.981,3.204,1.175.32,3.738,3.418,3.205,3.632,2.029,2.029-6.089,5.555-4.485-3.312-2.777,2.564-2.243,3.738-6.088-4.913.427-.534-2.777,4.593.962,5.02-5.341-2.243-2.136,1.815-1.603,4.166,2.991,3.632-6.303,1.709-5.554-5.981-.854.747-2.35,2.991-.214.427-3.738,3.525-7.37,4.059.106,7.477-5.233,3.098,2.029,2.67-3.524.214-6.622,3.952-1.068,1.281-11.108,3.846.854,3.098-1.495-2.457-4.913,1.603-2.351,4.272,3.846,3.418,6.088,2.776-2.136-1.281-4.166.961-1.815-1.389-2.991,1.068-1.815-1.389-3.312,1.389-3.204v-5.768l-3.204-4.379-3.312-.962-2.456-3.738-2.243-8.438-4.059-4.593-1.068-2.457-6.73-4.486-13.03,5.982-13.352,5.768-23.179,9.934-15.701-2.457-14.526-2.777-4.272-4.593-18.157-20.294-5.981.641-.107-5.768-9.292-6.195-.32-4.913-1.603-4.807h0Z" fill="#e7e9ea" stroke="#7e6359" stroke-miterlimit="10" stroke-width=".5"/>
          <path id="_x32_361" d="M181.281,488.955l-20.614,5.127,1.228,12.283v.054l-3.524,10.468,7.797,28.465,11.429,3.738,6.623-.32,5.127,6.942,3.418,4.913,4.272,4.807,1.602,7.37,7.37,8.972,3.418,7.264-.428,3.524,2.137,2.991,1.815-1.282,10.468,1.923,3.418,1.389,8.225.427,5.874,1.709,2.137,2.137,3.311-3.418,1.176-12.711,6.302-9.506,3.524,1.923.534.694-.428-.642,2.243-8.545-.213-6.248-1.229-10.36,7.049-8.492-1.441-.907-2.777-6.622-2.35-.642-9.186,9.667-3.738-1.709-4.166.213-5.875-7.263-5.34-8.225-1.122-8.811-.16-.054-.213-.48-3.952-.908.641-3.738-1.923-2.884-.48-.427-12.55-11.216-.854-7.797-3.418-1.175-9.881-1.603-15.273-1.015h0Z" fill="#e7e9ea" stroke="#7e6359" stroke-miterlimit="10" stroke-width=".5"/>
          <path id="_x32_262" d="M339.201,493.548l-12.711,1.923-6.729,8.865-2.671,3.738-.961,5.341-4.272-1.282-4.486,1.923-5.981-1.389-13.458,6.623-12.39,1.709-4.272,2.99-2.243-2.457-5.875-.747-4.485.854.106,4.699,1.175,5.981h-2.029l.854,4.059,2.35.642,2.768,6.612,1.448.932,5.434,5.276,4.707.65,6.337-5.102,7.197-.503,14.62,3.242,1.389,1.602,6.622-.32,10.148.32,10.468,2.563,4.165,2.457,2.35-.428,4.593,1.282,1.816-1.068,3.524,1.603,3.312-.534,5.661,1.495,1.602-3.952,3.204-.854,1.068-3.524-5.661-1.602-2.99-4.807.641-2.99,2.884-.854-.854-6.302-3.845-1.389-.107-2.136,3.205-1.282,2.776,5.661,5.447,1.175-.854-3.845,2.671-2.457-3.418-3.204-.32-3.738-3.204-1.176-4.594-5.98-.961-2.671-9.399-10.254-5.768-7.37h0Z" fill="#e7e9ea" stroke="#7e6359" stroke-miterlimit="10" stroke-width=".5"/>
          <path id="_x32_182" d="M265.339,544.556l-7.05,8.491,1.229,10.36.214,6.249-2.243,8.545,8.972,13.03,7.37,16.93,16.021,23.071.962,7.264,2.99,5.66,6.729,3.846,8.011.854,6.515-3.952,7.264-.106,5.447,1.335,6.088-.588,3.846-.427,9.826-1.282-1.175-11.429,2.671-2.67,1.281-5.021-4.699-5.447-.642-4.059,2.671-4.699-2.563-5.769,2.243-4.165,1.815-4.38,1.602-3.845,3.952,1.602,1.389,2.884,2.35.854,1.176-6.73-3.525-1.495-1.281-2.137.106-4.699-2.67-2.884,1.389-7.05,2.776-4.807,1.282-10.788-5.661-1.495-3.312.534-3.524-1.603-1.815,1.068-4.593-1.281-2.351.427-4.165-2.456-10.468-2.563-10.147-.321-6.622.321-1.389-1.603-14.633-3.204-7.21.534-6.302,5.019-4.699-.641-5.447-5.287h0Z" fill="#e7e9ea" stroke="#7e6359" stroke-miterlimit="10" stroke-width=".5"/>
          <path id="_x30_563" d="M295.087,804.475l-2.136,4.593-4.486-1.815-4.166,4.593,1.496,2.67-1.816,2.777-3.418-.106-.854,3.631-1.281-2.243-2.029.962-3.738-2.243-2.457,2.99-2.243.107-1.923,2.456-1.602,3.098-.854,2.991-3.738,2.136-.534,5.234-2.884,3.418,2.884,2.35,2.456.534,1.389,1.281-2.563,1.602-1.602,3.952-2.564,1.175-1.816-1.923-1.815.748-.106,2.563-4.807,3.951-.642,2.671-.854,2.67.534,1.709-1.067,1.709-1.068,5.341-2.35,7.797,2.776,1.175,5.981-.961.32,2.456,5.875-1.175,1.603-3.204,2.029,1.068,1.815,6.836.962,2.563-1.496,1.815-1.389,3.312.854,3.098,2.991,3.631-.534,1.923,1.495,5.341,1.709,4.059,6.089-.641,5.554,1.281.534-3.631,1.175-1.603,2.563.427.854-2.776,2.35-2.137-.427-2.35,3.738-.854,4.593,1.495.641,2.563,3.098-1.602,2.243,1.602,4.165-3.845,2.03-.214-2.03-7.05,1.923-1.495-3.418-5.021.642-4.165,3.951.587,2.671-10.521,4.485,1.175,2.777-2.724,2.884-.106h.801l1.176-.054,9.666,6.836,3.845,1.709,2.03-5.233-2.243-3.418-3.632-2.563,6.942-1.495,1.496-3.739-3.205-2.456-3.952-.32-1.067-2.671-3.846-1.175-1.389-2.029,2.029.214,4.486.854,4.486-1.709,2.99-4.913-3.204-3.205-4.807-3.738-5.874-2.67-6.195-.427-.854,3.631-2.243-2.776-3.311,1.388-1.389-.641.106-2.67,1.603-1.495,4.165.641h2.884l-1.038-2.719-2.166-.913-4.807-9.399-1.067-1.603-2.457-.641-2.884-3.204-1.815-3.524-3.952-1.816-3.952-2.67-.748-2.029-2.029-1.068h0Z" fill="#e7e9ea" stroke="#7e6359" stroke-miterlimit="10" stroke-width=".5"/>
        </g>
        <g>
          <path d="M387.006,63.303s-1.155-.99-2.212-2.621l1.426.002s-1.182-1.012-2.09-2.634l1.39.002s-1.968-1.685-2.339-4.067c0,0-.553,2.456-2.353,4.059l1.317.002c-.47.878-1.126,1.833-2.017,2.627l1.356.002c-.548.899-1.252,1.82-2.143,2.614l3.272.005-.039,1.415s.651.456,1.198.013l-.037-1.426,3.271.005Z" fill="#476927" stroke="#313d31" stroke-miterlimit="10" stroke-width=".5"/>
          <path d="M395.3,63.332s-1.155-.99-2.212-2.621l1.426.002s-1.182-1.012-2.09-2.634l1.39.002s-1.968-1.685-2.339-4.067c0,0-.553,2.456-2.353,4.059l1.317.002c-.47.878-1.126,1.833-2.017,2.627l1.356.002c-.548.899-1.252,1.82-2.143,2.614l3.272.005-.039,1.415s.651.456,1.198.013l-.037-1.426,3.271.005Z" fill="#476927" stroke="#313d31" stroke-miterlimit="10" stroke-width=".5"/>
          <path d="M391.05,68.55s-1.155-.99-2.212-2.621l1.426.002s-1.182-1.012-2.09-2.634l1.39.002s-1.968-1.685-2.339-4.067c0,0-.553,2.456-2.353,4.059l1.317.002c-.47.878-1.126,1.833-2.017,2.627l1.356.002c-.548.899-1.252,1.82-2.143,2.614l3.272.005-.039,1.415s.651.456,1.198.013l-.037-1.426,3.271.005Z" fill="#476927" stroke="#313d31" stroke-miterlimit="10" stroke-width=".5"/>
        </g>
        <g>
          <path d="M354.625,155.303s-1.155-.99-2.212-2.621l1.426.002s-1.182-1.012-2.09-2.634l1.39.002s-1.968-1.685-2.339-4.067c0,0-.553,2.456-2.353,4.059l1.317.002c-.47.878-1.126,1.833-2.017,2.627l1.356.002c-.548.899-1.252,1.82-2.143,2.614l3.272.005-.039,1.415s.651.456,1.198.013l-.037-1.426,3.271.005Z" fill="#476927" stroke="#313d31" stroke-miterlimit="10" stroke-width=".5"/>
          <path d="M362.919,155.332s-1.155-.99-2.212-2.621l1.426.002s-1.182-1.012-2.09-2.634l1.39.002s-1.968-1.685-2.339-4.067c0,0-.553,2.456-2.353,4.059l1.317.002c-.47.878-1.126,1.833-2.017,2.627l1.356.002c-.548.899-1.252,1.82-2.143,2.614l3.272.005-.039,1.415s.651.456,1.198.013l-.037-1.426,3.271.005Z" fill="#476927" stroke="#313d31" stroke-miterlimit="10" stroke-width=".5"/>
          <path d="M358.67,160.55s-1.155-.99-2.212-2.621l1.426.002s-1.182-1.012-2.09-2.634l1.39.002s-1.968-1.685-2.339-4.067c0,0-.553,2.456-2.353,4.059l1.317.002c-.47.878-1.126,1.833-2.017,2.627l1.356.002c-.548.899-1.252,1.82-2.143,2.614l3.272.005-.039,1.415s.651.456,1.198.013l-.037-1.426,3.271.005Z" fill="#476927" stroke="#313d31" stroke-miterlimit="10" stroke-width=".5"/>
        </g>
        <g>
          <path d="M451.617,1047.98s-1.155-.99-2.212-2.621l1.426.002s-1.182-1.012-2.09-2.634l1.39.002s-1.968-1.685-2.339-4.067c0,0-.553,2.456-2.353,4.059l1.317.002c-.47.878-1.126,1.833-2.017,2.627l1.356.002c-.548.899-1.252,1.82-2.143,2.614l3.272.005-.039,1.415s.651.456,1.198.013l-.037-1.426,3.271.005Z" fill="#476927" stroke="#313d31" stroke-miterlimit="10" stroke-width=".5"/>
          <path d="M459.912,1048.009s-1.155-.99-2.212-2.621l1.426.002s-1.182-1.012-2.09-2.634l1.39.002s-1.968-1.685-2.339-4.067c0,0-.553,2.456-2.353,4.059l1.317.002c-.47.878-1.126,1.833-2.017,2.627l1.356.002c-.548.899-1.252,1.82-2.143,2.614l3.272.005-.039,1.415s.651.456,1.198.013l-.037-1.426,3.271.005Z" fill="#476927" stroke="#313d31" stroke-miterlimit="10" stroke-width=".5"/>
          <path d="M455.662,1053.226s-1.155-.99-2.212-2.621l1.426.002s-1.182-1.012-2.09-2.634l1.39.002s-1.968-1.685-2.339-4.067c0,0-.553,2.456-2.353,4.059l1.317.002c-.47.878-1.126,1.833-2.017,2.627l1.356.002c-.548.899-1.252,1.82-2.143,2.614l3.272.005-.039,1.415s.651.456,1.198.013l-.037-1.426,3.271.005Z" fill="#476927" stroke="#313d31" stroke-miterlimit="10" stroke-width=".5"/>
        </g>
        <g>
          <path d="M361.609,128.763s-1.155-.99-2.212-2.621l1.426.002s-1.182-1.012-2.09-2.634l1.39.002s-1.968-1.685-2.339-4.067c0,0-.553,2.456-2.353,4.059l1.317.002c-.47.878-1.126,1.833-2.017,2.627l1.356.002c-.548.899-1.252,1.82-2.143,2.614l3.272.005-.039,1.415s.651.456,1.198.013l-.037-1.426,3.271.005Z" fill="#476927" stroke="#313d31" stroke-miterlimit="10" stroke-width=".5"/>
          <path d="M369.903,128.793s-1.155-.99-2.212-2.621l1.426.002s-1.182-1.012-2.09-2.634l1.39.002s-1.968-1.685-2.339-4.067c0,0-.553,2.456-2.353,4.059l1.317.002c-.47.878-1.126,1.833-2.017,2.627l1.356.002c-.548.899-1.252,1.82-2.143,2.614l3.272.005-.039,1.415s.651.456,1.198.013l-.037-1.426,3.271.005Z" fill="#476927" stroke="#313d31" stroke-miterlimit="10" stroke-width=".5"/>
          <path d="M365.654,134.01s-1.155-.99-2.212-2.621l1.426.002s-1.182-1.012-2.09-2.634l1.39.002s-1.968-1.685-2.339-4.067c0,0-.553,2.456-2.353,4.059l1.317.002c-.47.878-1.126,1.833-2.017,2.627l1.356.002c-.548.899-1.252,1.82-2.143,2.614l3.272.005-.039,1.415s.651.456,1.198.013l-.037-1.426,3.271.005Z" fill="#476927" stroke="#313d31" stroke-miterlimit="10" stroke-width=".5"/>
        </g>
        <g>
          <path d="M415.069,171.43s-1.155-.99-2.212-2.621l1.426.002s-1.182-1.012-2.09-2.634l1.39.002s-1.968-1.685-2.339-4.067c0,0-.553,2.456-2.353,4.059l1.317.002c-.47.878-1.126,1.833-2.017,2.627l1.356.002c-.548.899-1.252,1.82-2.143,2.614l3.272.005-.039,1.415s.651.456,1.198.013l-.037-1.426,3.271.005Z" fill="#476927" stroke="#313d31" stroke-miterlimit="10" stroke-width=".5"/>
          <path d="M423.364,171.459s-1.155-.99-2.212-2.621l1.426.002s-1.182-1.012-2.09-2.634l1.39.002s-1.968-1.685-2.339-4.067c0,0-.553,2.456-2.353,4.059l1.317.002c-.47.878-1.126,1.833-2.017,2.627l1.356.002c-.548.899-1.252,1.82-2.143,2.614l3.272.005-.039,1.415s.651.456,1.198.013l-.037-1.426,3.271.005Z" fill="#476927" stroke="#313d31" stroke-miterlimit="10" stroke-width=".5"/>
          <path d="M419.114,176.677s-1.155-.99-2.212-2.621l1.426.002s-1.182-1.012-2.09-2.634l1.39.002s-1.968-1.685-2.339-4.067c0,0-.553,2.456-2.353,4.059l1.317.002c-.47.878-1.126,1.833-2.017,2.627l1.356.002c-.548.899-1.252,1.82-2.143,2.614l3.272.005-.039,1.415s.651.456,1.198.013l-.037-1.426,3.271.005Z" fill="#476927" stroke="#313d31" stroke-miterlimit="10" stroke-width=".5"/>
        </g>
        <g>
          <path d="M383.505,401.062s-1.155-.99-2.212-2.621l1.426.002s-1.182-1.012-2.09-2.634l1.39.002s-1.968-1.685-2.339-4.067c0,0-.553,2.456-2.353,4.059l1.317.002c-.47.878-1.126,1.833-2.017,2.627l1.356.002c-.548.899-1.252,1.82-2.143,2.614l3.272.005-.039,1.415s.651.456,1.198.013l-.037-1.426,3.271.005Z" fill="#476927" stroke="#313d31" stroke-miterlimit="10" stroke-width=".5"/>
          <path d="M391.8,401.091s-1.155-.99-2.212-2.621l1.426.002s-1.182-1.012-2.09-2.634l1.39.002s-1.968-1.685-2.339-4.067c0,0-.553,2.456-2.353,4.059l1.317.002c-.47.878-1.126,1.833-2.017,2.627l1.356.002c-.548.899-1.252,1.82-2.143,2.614l3.272.005-.039,1.415s.651.456,1.198.013l-.037-1.426,3.271.005Z" fill="#476927" stroke="#313d31" stroke-miterlimit="10" stroke-width=".5"/>
          <path d="M387.55,406.308s-1.155-.99-2.212-2.621l1.426.002s-1.182-1.012-2.09-2.634l1.39.002s-1.968-1.685-2.339-4.067c0,0-.553,2.456-2.353,4.059l1.317.002c-.47.878-1.126,1.833-2.017,2.627l1.356.002c-.548.899-1.252,1.82-2.143,2.614l3.272.005-.039,1.415s.651.456,1.198.013l-.037-1.426,3.271.005Z" fill="#476927" stroke="#313d31" stroke-miterlimit="10" stroke-width=".5"/>
        </g>
        <g>
          <path d="M390.277,477.725s-1.155-.99-2.212-2.621l1.426.002s-1.182-1.012-2.09-2.634l1.39.002s-1.968-1.685-2.339-4.067c0,0-.553,2.456-2.353,4.059l1.317.002c-.47.878-1.126,1.833-2.017,2.627l1.356.002c-.548.899-1.252,1.82-2.143,2.614l3.272.005-.039,1.415s.651.456,1.198.013l-.037-1.426,3.271.005Z" fill="#476927" stroke="#313d31" stroke-miterlimit="10" stroke-width=".5"/>
          <path d="M398.572,477.755s-1.155-.99-2.212-2.621l1.426.002s-1.182-1.012-2.09-2.634l1.39.002s-1.968-1.685-2.339-4.067c0,0-.553,2.456-2.353,4.059l1.317.002c-.47.878-1.126,1.833-2.017,2.627l1.356.002c-.548.899-1.252,1.82-2.143,2.614l3.272.005-.039,1.415s.651.456,1.198.013l-.037-1.426,3.271.005Z" fill="#476927" stroke="#313d31" stroke-miterlimit="10" stroke-width=".5"/>
          <path d="M394.322,482.972s-1.155-.99-2.212-2.621l1.426.002s-1.182-1.012-2.09-2.634l1.39.002s-1.968-1.685-2.339-4.067c0,0-.553,2.456-2.353,4.059l1.317.002c-.47.878-1.126,1.833-2.017,2.627l1.356.002c-.548.899-1.252,1.82-2.143,2.614l3.272.005-.039,1.415s.651.456,1.198.013l-.037-1.426,3.271.005Z" fill="#476927" stroke="#313d31" stroke-miterlimit="10" stroke-width=".5"/>
        </g>
        <g>
          <path d="M208.69,549.666s-1.155-.99-2.212-2.621l1.426.002s-1.182-1.012-2.09-2.634l1.39.002s-1.968-1.685-2.339-4.067c0,0-.553,2.456-2.353,4.059l1.317.002c-.47.878-1.126,1.833-2.017,2.627l1.356.002c-.548.899-1.252,1.82-2.143,2.614l3.272.005-.039,1.415s.651.456,1.198.013l-.037-1.426,3.271.005Z" fill="#476927" stroke="#313d31" stroke-miterlimit="10" stroke-width=".5"/>
          <path d="M216.985,549.695s-1.155-.99-2.212-2.621l1.426.002s-1.182-1.012-2.09-2.634l1.39.002s-1.968-1.685-2.339-4.067c0,0-.553,2.456-2.353,4.059l1.317.002c-.47.878-1.126,1.833-2.017,2.627l1.356.002c-.548.899-1.252,1.82-2.143,2.614l3.272.005-.039,1.415s.651.456,1.198.013l-.037-1.426,3.271.005Z" fill="#476927" stroke="#313d31" stroke-miterlimit="10" stroke-width=".5"/>
          <path d="M212.735,554.912s-1.155-.99-2.212-2.621l1.426.002s-1.182-1.012-2.09-2.634l1.39.002s-1.968-1.685-2.339-4.067c0,0-.553,2.456-2.353,4.059l1.317.002c-.47.878-1.126,1.833-2.017,2.627l1.356.002c-.548.899-1.252,1.82-2.143,2.614l3.272.005-.039,1.415s.651.456,1.198.013l-.037-1.426,3.271.005Z" fill="#476927" stroke="#313d31" stroke-miterlimit="10" stroke-width=".5"/>
        </g>
        <g>
          <path d="M271.091,583.868s-1.155-.99-2.212-2.621l1.426.002s-1.182-1.012-2.09-2.634l1.39.002s-1.968-1.685-2.339-4.067c0,0-.553,2.456-2.353,4.059l1.317.002c-.47.878-1.126,1.833-2.017,2.627l1.356.002c-.548.899-1.252,1.82-2.143,2.614l3.272.005-.039,1.415s.651.456,1.198.013l-.037-1.426,3.271.005Z" fill="#476927" stroke="#313d31" stroke-miterlimit="10" stroke-width=".5"/>
          <path d="M279.386,583.897s-1.155-.99-2.212-2.621l1.426.002s-1.182-1.012-2.09-2.634l1.39.002s-1.968-1.685-2.339-4.067c0,0-.553,2.456-2.353,4.059l1.317.002c-.47.878-1.126,1.833-2.017,2.627l1.356.002c-.548.899-1.252,1.82-2.143,2.614l3.272.005-.039,1.415s.651.456,1.198.013l-.037-1.426,3.271.005Z" fill="#476927" stroke="#313d31" stroke-miterlimit="10" stroke-width=".5"/>
          <path d="M275.136,589.114s-1.155-.99-2.212-2.621l1.426.002s-1.182-1.012-2.09-2.634l1.39.002s-1.968-1.685-2.339-4.067c0,0-.553,2.456-2.353,4.059l1.317.002c-.47.878-1.126,1.833-2.017,2.627l1.356.002c-.548.899-1.252,1.82-2.143,2.614l3.272.005-.039,1.415s.651.456,1.198.013l-.037-1.426,3.271.005Z" fill="#476927" stroke="#313d31" stroke-miterlimit="10" stroke-width=".5"/>
        </g>
        <g>
          <path d="M178.73,593.932s-1.155-.99-2.212-2.621l1.426.002s-1.182-1.012-2.09-2.634l1.39.002s-1.968-1.685-2.339-4.067c0,0-.553,2.456-2.353,4.059l1.317.002c-.47.878-1.126,1.833-2.017,2.627l1.356.002c-.548.899-1.252,1.82-2.143,2.614l3.272.005-.039,1.415s.651.456,1.198.013l-.037-1.426,3.271.005Z" fill="#476927" stroke="#313d31" stroke-miterlimit="10" stroke-width=".5"/>
          <path d="M187.024,593.961s-1.155-.99-2.212-2.621l1.426.002s-1.182-1.012-2.09-2.634l1.39.002s-1.968-1.685-2.339-4.067c0,0-.553,2.456-2.353,4.059l1.317.002c-.47.878-1.126,1.833-2.017,2.627l1.356.002c-.548.899-1.252,1.82-2.143,2.614l3.272.005-.039,1.415s.651.456,1.198.013l-.037-1.426,3.271.005Z" fill="#476927" stroke="#313d31" stroke-miterlimit="10" stroke-width=".5"/>
          <path d="M182.775,599.178s-1.155-.99-2.212-2.621l1.426.002s-1.182-1.012-2.09-2.634l1.39.002s-1.968-1.685-2.339-4.067c0,0-.553,2.456-2.353,4.059l1.317.002c-.47.878-1.126,1.833-2.017,2.627l1.356.002c-.548.899-1.252,1.82-2.143,2.614l3.272.005-.039,1.415s.651.456,1.198.013l-.037-1.426,3.271.005Z" fill="#476927" stroke="#313d31" stroke-miterlimit="10" stroke-width=".5"/>
        </g>
        <g>
          <path d="M168.865,548.977s-1.155-.99-2.212-2.621l1.426.002s-1.182-1.012-2.09-2.634l1.39.002s-1.968-1.685-2.339-4.067c0,0-.553,2.456-2.353,4.059l1.317.002c-.47.878-1.126,1.833-2.017,2.627l1.356.002c-.548.899-1.252,1.82-2.143,2.614l3.272.005-.039,1.415s.651.456,1.198.013l-.037-1.426,3.271.005Z" fill="#476927" stroke="#313d31" stroke-miterlimit="10" stroke-width=".5"/>
          <path d="M177.16,549.007s-1.155-.99-2.212-2.621l1.426.002s-1.182-1.012-2.09-2.634l1.39.002s-1.968-1.685-2.339-4.067c0,0-.553,2.456-2.353,4.059l1.317.002c-.47.878-1.126,1.833-2.017,2.627l1.356.002c-.548.899-1.252,1.82-2.143,2.614l3.272.005-.039,1.415s.651.456,1.198.013l-.037-1.426,3.271.005Z" fill="#476927" stroke="#313d31" stroke-miterlimit="10" stroke-width=".5"/>
          <path d="M172.91,554.224s-1.155-.99-2.212-2.621l1.426.002s-1.182-1.012-2.09-2.634l1.39.002s-1.968-1.685-2.339-4.067c0,0-.553,2.456-2.353,4.059l1.317.002c-.47.878-1.126,1.833-2.017,2.627l1.356.002c-.548.899-1.252,1.82-2.143,2.614l3.272.005-.039,1.415s.651.456,1.198.013l-.037-1.426,3.271.005Z" fill="#476927" stroke="#313d31" stroke-miterlimit="10" stroke-width=".5"/>
        </g>
        <g>
          <path d="M332.444,699.709s-1.155-.99-2.212-2.621l1.426.002s-1.182-1.012-2.09-2.634l1.39.002s-1.968-1.685-2.339-4.067c0,0-.553,2.456-2.353,4.059l1.317.002c-.47.878-1.126,1.833-2.017,2.627l1.356.002c-.548.899-1.252,1.82-2.143,2.614l3.272.005-.039,1.415s.651.456,1.198.013l-.037-1.426,3.271.005Z" fill="#476927" stroke="#313d31" stroke-miterlimit="10" stroke-width=".5"/>
          <path d="M340.739,699.739s-1.155-.99-2.212-2.621l1.426.002s-1.182-1.012-2.09-2.634l1.39.002s-1.968-1.685-2.339-4.067c0,0-.553,2.456-2.353,4.059l1.317.002c-.47.878-1.126,1.833-2.017,2.627l1.356.002c-.548.899-1.252,1.82-2.143,2.614l3.272.005-.039,1.415s.651.456,1.198.013l-.037-1.426,3.271.005Z" fill="#476927" stroke="#313d31" stroke-miterlimit="10" stroke-width=".5"/>
          <path d="M336.489,704.956s-1.155-.99-2.212-2.621l1.426.002s-1.182-1.012-2.09-2.634l1.39.002s-1.968-1.685-2.339-4.067c0,0-.553,2.456-2.353,4.059l1.317.002c-.47.878-1.126,1.833-2.017,2.627l1.356.002c-.548.899-1.252,1.82-2.143,2.614l3.272.005-.039,1.415s.651.456,1.198.013l-.037-1.426,3.271.005Z" fill="#476927" stroke="#313d31" stroke-miterlimit="10" stroke-width=".5"/>
        </g>
        <g>
          <path d="M411.396,755.646s-1.155-.99-2.212-2.621l1.426.002s-1.182-1.012-2.09-2.634l1.39.002s-1.968-1.685-2.339-4.067c0,0-.553,2.456-2.353,4.059l1.317.002c-.47.878-1.126,1.833-2.017,2.627l1.356.002c-.548.899-1.252,1.82-2.143,2.614l3.272.005-.039,1.415s.651.456,1.198.013l-.037-1.426,3.271.005Z" fill="#476927" stroke="#313d31" stroke-miterlimit="10" stroke-width=".5"/>
          <path d="M419.691,755.675s-1.155-.99-2.212-2.621l1.426.002s-1.182-1.012-2.09-2.634l1.39.002s-1.968-1.685-2.339-4.067c0,0-.553,2.456-2.353,4.059l1.317.002c-.47.878-1.126,1.833-2.017,2.627l1.356.002c-.548.899-1.252,1.82-2.143,2.614l3.272.005-.039,1.415s.651.456,1.198.013l-.037-1.426,3.271.005Z" fill="#476927" stroke="#313d31" stroke-miterlimit="10" stroke-width=".5"/>
          <path d="M415.441,760.892s-1.155-.99-2.212-2.621l1.426.002s-1.182-1.012-2.09-2.634l1.39.002s-1.968-1.685-2.339-4.067c0,0-.553,2.456-2.353,4.059l1.317.002c-.47.878-1.126,1.833-2.017,2.627l1.356.002c-.548.899-1.252,1.82-2.143,2.614l3.272.005-.039,1.415s.651.456,1.198.013l-.037-1.426,3.271.005Z" fill="#476927" stroke="#313d31" stroke-miterlimit="10" stroke-width=".5"/>
        </g>
        <g>
          <path d="M393.746,790.281s-1.155-.99-2.212-2.621l1.426.002s-1.182-1.012-2.09-2.634l1.39.002s-1.968-1.685-2.339-4.067c0,0-.553,2.456-2.353,4.059l1.317.002c-.47.878-1.126,1.833-2.017,2.627l1.356.002c-.548.899-1.252,1.82-2.143,2.614l3.272.005-.039,1.415s.651.456,1.198.013l-.037-1.426,3.271.005Z" fill="#476927" stroke="#313d31" stroke-miterlimit="10" stroke-width=".5"/>
          <path d="M402.04,790.31s-1.155-.99-2.212-2.621l1.426.002s-1.182-1.012-2.09-2.634l1.39.002s-1.968-1.685-2.339-4.067c0,0-.553,2.456-2.353,4.059l1.317.002c-.47.878-1.126,1.833-2.017,2.627l1.356.002c-.548.899-1.252,1.82-2.143,2.614l3.272.005-.039,1.415s.651.456,1.198.013l-.037-1.426,3.271.005Z" fill="#476927" stroke="#313d31" stroke-miterlimit="10" stroke-width=".5"/>
          <path d="M397.79,795.527s-1.155-.99-2.212-2.621l1.426.002s-1.182-1.012-2.09-2.634l1.39.002s-1.968-1.685-2.339-4.067c0,0-.553,2.456-2.353,4.059l1.317.002c-.47.878-1.126,1.833-2.017,2.627l1.356.002c-.548.899-1.252,1.82-2.143,2.614l3.272.005-.039,1.415s.651.456,1.198.013l-.037-1.426,3.271.005Z" fill="#476927" stroke="#313d31" stroke-miterlimit="10" stroke-width=".5"/>
        </g>
        <g>
          <path d="M430.674,865.852s-1.155-.99-2.212-2.621l1.426.002s-1.182-1.012-2.09-2.634l1.39.002s-1.968-1.685-2.339-4.067c0,0-.553,2.456-2.353,4.059l1.317.002c-.47.878-1.126,1.833-2.017,2.627l1.356.002c-.548.899-1.252,1.82-2.143,2.614l3.272.005-.039,1.415s.651.456,1.198.013l-.037-1.426,3.271.005Z" fill="#476927" stroke="#313d31" stroke-miterlimit="10" stroke-width=".5"/>
          <path d="M438.969,865.882s-1.155-.99-2.212-2.621l1.426.002s-1.182-1.012-2.09-2.634l1.39.002s-1.968-1.685-2.339-4.067c0,0-.553,2.456-2.353,4.059l1.317.002c-.47.878-1.126,1.833-2.017,2.627l1.356.002c-.548.899-1.252,1.82-2.143,2.614l3.272.005-.039,1.415s.651.456,1.198.013l-.037-1.426,3.271.005Z" fill="#476927" stroke="#313d31" stroke-miterlimit="10" stroke-width=".5"/>
          <path d="M434.719,871.099s-1.155-.99-2.212-2.621l1.426.002s-1.182-1.012-2.09-2.634l1.39.002s-1.968-1.685-2.339-4.067c0,0-.553,2.456-2.353,4.059l1.317.002c-.47.878-1.126,1.833-2.017,2.627l1.356.002c-.548.899-1.252,1.82-2.143,2.614l3.272.005-.039,1.415s.651.456,1.198.013l-.037-1.426,3.271.005Z" fill="#476927" stroke="#313d31" stroke-miterlimit="10" stroke-width=".5"/>
        </g>
        <g>
          <path d="M220.627,923.332s-1.155-.99-2.212-2.621l1.426.002s-1.182-1.012-2.09-2.634l1.39.002s-1.968-1.685-2.339-4.067c0,0-.553,2.456-2.353,4.059l1.317.002c-.47.878-1.126,1.833-2.017,2.627l1.356.002c-.548.899-1.252,1.82-2.143,2.614l3.272.005-.039,1.415s.651.456,1.198.013l-.037-1.426,3.271.005Z" fill="#476927" stroke="#313d31" stroke-miterlimit="10" stroke-width=".5"/>
          <path d="M228.921,923.362s-1.155-.99-2.212-2.621l1.426.002s-1.182-1.012-2.09-2.634l1.39.002s-1.968-1.685-2.339-4.067c0,0-.553,2.456-2.353,4.059l1.317.002c-.47.878-1.126,1.833-2.017,2.627l1.356.002c-.548.899-1.252,1.82-2.143,2.614l3.272.005-.039,1.415s.651.456,1.198.013l-.037-1.426,3.271.005Z" fill="#476927" stroke="#313d31" stroke-miterlimit="10" stroke-width=".5"/>
          <path d="M224.671,928.579s-1.155-.99-2.212-2.621l1.426.002s-1.182-1.012-2.09-2.634l1.39.002s-1.968-1.685-2.339-4.067c0,0-.553,2.456-2.353,4.059l1.317.002c-.47.878-1.126,1.833-2.017,2.627l1.356.002c-.548.899-1.252,1.82-2.143,2.614l3.272.005-.039,1.415s.651.456,1.198.013l-.037-1.426,3.271.005Z" fill="#476927" stroke="#313d31" stroke-miterlimit="10" stroke-width=".5"/>
        </g>
        <g>
          <path d="M261.523,901.741s-1.155-.99-2.212-2.621l1.426.002s-1.182-1.012-2.09-2.634l1.39.002s-1.968-1.685-2.339-4.067c0,0-.553,2.456-2.353,4.059l1.317.002c-.47.878-1.126,1.833-2.017,2.627l1.356.002c-.548.899-1.252,1.82-2.143,2.614l3.272.005-.039,1.415s.651.456,1.198.013l-.037-1.426,3.271.005Z" fill="#476927" stroke="#313d31" stroke-miterlimit="10" stroke-width=".5"/>
          <path d="M269.818,901.771s-1.155-.99-2.212-2.621l1.426.002s-1.182-1.012-2.09-2.634l1.39.002s-1.968-1.685-2.339-4.067c0,0-.553,2.456-2.353,4.059l1.317.002c-.47.878-1.126,1.833-2.017,2.627l1.356.002c-.548.899-1.252,1.82-2.143,2.614l3.272.005-.039,1.415s.651.456,1.198.013l-.037-1.426,3.271.005Z" fill="#476927" stroke="#313d31" stroke-miterlimit="10" stroke-width=".5"/>
          <path d="M265.568,906.988s-1.155-.99-2.212-2.621l1.426.002s-1.182-1.012-2.09-2.634l1.39.002s-1.968-1.685-2.339-4.067c0,0-.553,2.456-2.353,4.059l1.317.002c-.47.878-1.126,1.833-2.017,2.627l1.356.002c-.548.899-1.252,1.82-2.143,2.614l3.272.005-.039,1.415s.651.456,1.198.013l-.037-1.426,3.271.005Z" fill="#476927" stroke="#313d31" stroke-miterlimit="10" stroke-width=".5"/>
        </g>
        <g>
          <path d="M340.571,939.265s-1.155-.99-2.212-2.621l1.426.002s-1.182-1.012-2.09-2.634l1.39.002s-1.968-1.685-2.339-4.067c0,0-.553,2.456-2.353,4.059l1.317.002c-.47.878-1.126,1.833-2.017,2.627l1.356.002c-.548.899-1.252,1.82-2.143,2.614l3.272.005-.039,1.415s.651.456,1.198.013l-.037-1.426,3.271.005Z" fill="#476927" stroke="#313d31" stroke-miterlimit="10" stroke-width=".5"/>
          <path d="M348.866,939.294s-1.155-.99-2.212-2.621l1.426.002s-1.182-1.012-2.09-2.634l1.39.002s-1.968-1.685-2.339-4.067c0,0-.553,2.456-2.353,4.059l1.317.002c-.47.878-1.126,1.833-2.017,2.627l1.356.002c-.548.899-1.252,1.82-2.143,2.614l3.272.005-.039,1.415s.651.456,1.198.013l-.037-1.426,3.271.005Z" fill="#476927" stroke="#313d31" stroke-miterlimit="10" stroke-width=".5"/>
          <path d="M344.616,944.511s-1.155-.99-2.212-2.621l1.426.002s-1.182-1.012-2.09-2.634l1.39.002s-1.968-1.685-2.339-4.067c0,0-.553,2.456-2.353,4.059l1.317.002c-.47.878-1.126,1.833-2.017,2.627l1.356.002c-.548.899-1.252,1.82-2.143,2.614l3.272.005-.039,1.415s.651.456,1.198.013l-.037-1.426,3.271.005Z" fill="#476927" stroke="#313d31" stroke-miterlimit="10" stroke-width=".5"/>
        </g>
        <g>
          <path d="M238.285,994.682s-1.155-.99-2.212-2.621l1.426.002s-1.182-1.012-2.09-2.634l1.39.002s-1.968-1.685-2.339-4.067c0,0-.553,2.456-2.353,4.059l1.317.002c-.47.878-1.126,1.833-2.017,2.627l1.356.002c-.548.899-1.252,1.82-2.143,2.614l3.272.005-.039,1.415s.651.456,1.198.013l-.037-1.426,3.271.005Z" fill="#476927" stroke="#313d31" stroke-miterlimit="10" stroke-width=".5"/>
          <path d="M246.58,994.711s-1.155-.99-2.212-2.621l1.426.002s-1.182-1.012-2.09-2.634l1.39.002s-1.968-1.685-2.339-4.067c0,0-.553,2.456-2.353,4.059l1.317.002c-.47.878-1.126,1.833-2.017,2.627l1.356.002c-.548.899-1.252,1.82-2.143,2.614l3.272.005-.039,1.415s.651.456,1.198.013l-.037-1.426,3.271.005Z" fill="#476927" stroke="#313d31" stroke-miterlimit="10" stroke-width=".5"/>
          <path d="M242.33,999.928s-1.155-.99-2.212-2.621l1.426.002s-1.182-1.012-2.09-2.634l1.39.002s-1.968-1.685-2.339-4.067c0,0-.553,2.456-2.353,4.059l1.317.002c-.47.878-1.126,1.833-2.017,2.627l1.356.002c-.548.899-1.252,1.82-2.143,2.614l3.272.005-.039,1.415s.651.456,1.198.013l-.037-1.426,3.271.005Z" fill="#476927" stroke="#313d31" stroke-miterlimit="10" stroke-width=".5"/>
        </g>
        <g>
          <path d="M222.603,1069.995s-1.155-.99-2.212-2.621l1.426.002s-1.182-1.012-2.09-2.634l1.39.002s-1.968-1.685-2.339-4.067c0,0-.553,2.456-2.353,4.059l1.317.002c-.47.878-1.126,1.833-2.017,2.627l1.356.002c-.548.899-1.252,1.82-2.143,2.614l3.272.005-.039,1.415s.651.456,1.198.013l-.037-1.426,3.271.005Z" fill="#476927" stroke="#313d31" stroke-miterlimit="10" stroke-width=".5"/>
          <path d="M230.897,1070.024s-1.155-.99-2.212-2.621l1.426.002s-1.182-1.012-2.09-2.634l1.39.002s-1.968-1.685-2.339-4.067c0,0-.553,2.456-2.353,4.059l1.317.002c-.47.878-1.126,1.833-2.017,2.627l1.356.002c-.548.899-1.252,1.82-2.143,2.614l3.272.005-.039,1.415s.651.456,1.198.013l-.037-1.426,3.271.005Z" fill="#476927" stroke="#313d31" stroke-miterlimit="10" stroke-width=".5"/>
          <path d="M226.648,1075.242s-1.155-.99-2.212-2.621l1.426.002s-1.182-1.012-2.09-2.634l1.39.002s-1.968-1.685-2.339-4.067c0,0-.553,2.456-2.353,4.059l1.317.002c-.47.878-1.126,1.833-2.017,2.627l1.356.002c-.548.899-1.252,1.82-2.143,2.614l3.272.005-.039,1.415s.651.456,1.198.013l-.037-1.426,3.271.005Z" fill="#476927" stroke="#313d31" stroke-miterlimit="10" stroke-width=".5"/>
        </g>
        <g>
          <path d="M184.666,1071.106s-1.155-.99-2.212-2.621l1.426.002s-1.182-1.012-2.09-2.634l1.39.002s-1.968-1.685-2.339-4.067c0,0-.553,2.456-2.353,4.059l1.317.002c-.47.878-1.126,1.833-2.017,2.627l1.356.002c-.548.899-1.252,1.82-2.143,2.614l3.272.005-.039,1.415s.651.456,1.198.013l-.037-1.426,3.271.005Z" fill="#476927" stroke="#313d31" stroke-miterlimit="10" stroke-width=".5"/>
          <path d="M192.961,1071.136s-1.155-.99-2.212-2.621l1.426.002s-1.182-1.012-2.09-2.634l1.39.002s-1.968-1.685-2.339-4.067c0,0-.553,2.456-2.353,4.059l1.317.002c-.47.878-1.126,1.833-2.017,2.627l1.356.002c-.548.899-1.252,1.82-2.143,2.614l3.272.005-.039,1.415s.651.456,1.198.013l-.037-1.426,3.271.005Z" fill="#476927" stroke="#313d31" stroke-miterlimit="10" stroke-width=".5"/>
          <path d="M188.711,1076.353s-1.155-.99-2.212-2.621l1.426.002s-1.182-1.012-2.09-2.634l1.39.002s-1.968-1.685-2.339-4.067c0,0-.553,2.456-2.353,4.059l1.317.002c-.47.878-1.126,1.833-2.017,2.627l1.356.002c-.548.899-1.252,1.82-2.143,2.614l3.272.005-.039,1.415s.651.456,1.198.013l-.037-1.426,3.271.005Z" fill="#476927" stroke="#313d31" stroke-miterlimit="10" stroke-width=".5"/>
        </g>
        <g>
          <path d="M176.443,1032.547s-1.155-.99-2.212-2.621l1.426.002s-1.182-1.012-2.09-2.634l1.39.002s-1.968-1.685-2.339-4.067c0,0-.553,2.456-2.353,4.059l1.317.002c-.47.878-1.126,1.833-2.017,2.627l1.356.002c-.548.899-1.252,1.82-2.143,2.614l3.272.005-.039,1.415s.651.456,1.198.013l-.037-1.426,3.271.005Z" fill="#476927" stroke="#313d31" stroke-miterlimit="10" stroke-width=".5"/>
          <path d="M184.738,1032.576s-1.155-.99-2.212-2.621l1.426.002s-1.182-1.012-2.09-2.634l1.39.002s-1.968-1.685-2.339-4.067c0,0-.553,2.456-2.353,4.059l1.317.002c-.47.878-1.126,1.833-2.017,2.627l1.356.002c-.548.899-1.252,1.82-2.143,2.614l3.272.005-.039,1.415s.651.456,1.198.013l-.037-1.426,3.271.005Z" fill="#476927" stroke="#313d31" stroke-miterlimit="10" stroke-width=".5"/>
          <path d="M180.488,1037.793s-1.155-.99-2.212-2.621l1.426.002s-1.182-1.012-2.09-2.634l1.39.002s-1.968-1.685-2.339-4.067c0,0-.553,2.456-2.353,4.059l1.317.002c-.47.878-1.126,1.833-2.017,2.627l1.356.002c-.548.899-1.252,1.82-2.143,2.614l3.272.005-.039,1.415s.651.456,1.198.013l-.037-1.426,3.271.005Z" fill="#476927" stroke="#313d31" stroke-miterlimit="10" stroke-width=".5"/>
        </g>
        <g>
          <path d="M263.841,782.725s-1.155-.99-2.212-2.621l1.426.002s-1.182-1.012-2.09-2.634l1.39.002s-1.968-1.685-2.339-4.067c0,0-.553,2.456-2.353,4.059l1.317.002c-.47.878-1.126,1.833-2.017,2.627l1.356.002c-.548.899-1.252,1.82-2.143,2.614l3.272.005-.039,1.415s.651.456,1.198.013l-.037-1.426,3.271.005Z" fill="#476927" stroke="#313d31" stroke-miterlimit="10" stroke-width=".5"/>
          <path d="M272.136,782.755s-1.155-.99-2.212-2.621l1.426.002s-1.182-1.012-2.09-2.634l1.39.002s-1.968-1.685-2.339-4.067c0,0-.553,2.456-2.353,4.059l1.317.002c-.47.878-1.126,1.833-2.017,2.627l1.356.002c-.548.899-1.252,1.82-2.143,2.614l3.272.005-.039,1.415s.651.456,1.198.013l-.037-1.426,3.271.005Z" fill="#476927" stroke="#313d31" stroke-miterlimit="10" stroke-width=".5"/>
          <path d="M267.886,787.972s-1.155-.99-2.212-2.621l1.426.002s-1.182-1.012-2.09-2.634l1.39.002s-1.968-1.685-2.339-4.067c0,0-.553,2.456-2.353,4.059l1.317.002c-.47.878-1.126,1.833-2.017,2.627l1.356.002c-.548.899-1.252,1.82-2.143,2.614l3.272.005-.039,1.415s.651.456,1.198.013l-.037-1.426,3.271.005Z" fill="#476927" stroke="#313d31" stroke-miterlimit="10" stroke-width=".5"/>
        </g>
        <g>
          <path d="M237.746,829.011s-1.155-.99-2.212-2.621l1.426.002s-1.182-1.012-2.09-2.634l1.39.002s-1.968-1.685-2.339-4.067c0,0-.553,2.456-2.353,4.059l1.317.002c-.47.878-1.126,1.833-2.017,2.627l1.356.002c-.548.899-1.252,1.82-2.143,2.614l3.272.005-.039,1.415s.651.456,1.198.013l-.037-1.426,3.271.005Z" fill="#476927" stroke="#313d31" stroke-miterlimit="10" stroke-width=".5"/>
          <path d="M246.04,829.04s-1.155-.99-2.212-2.621l1.426.002s-1.182-1.012-2.09-2.634l1.39.002s-1.968-1.685-2.339-4.067c0,0-.553,2.456-2.353,4.059l1.317.002c-.47.878-1.126,1.833-2.017,2.627l1.356.002c-.548.899-1.252,1.82-2.143,2.614l3.272.005-.039,1.415s.651.456,1.198.013l-.037-1.426,3.271.005Z" fill="#476927" stroke="#313d31" stroke-miterlimit="10" stroke-width=".5"/>
          <path d="M241.79,834.257s-1.155-.99-2.212-2.621l1.426.002s-1.182-1.012-2.09-2.634l1.39.002s-1.968-1.685-2.339-4.067c0,0-.553,2.456-2.353,4.059l1.317.002c-.47.878-1.126,1.833-2.017,2.627l1.356.002c-.548.899-1.252,1.82-2.143,2.614l3.272.005-.039,1.415s.651.456,1.198.013l-.037-1.426,3.271.005Z" fill="#476927" stroke="#313d31" stroke-miterlimit="10" stroke-width=".5"/>
        </g>
        <g>
          <path d="M137.27,793.011s-1.155-.99-2.212-2.621l1.426.002s-1.182-1.012-2.09-2.634l1.39.002s-1.968-1.685-2.339-4.067c0,0-.553,2.456-2.353,4.059l1.317.002c-.47.878-1.126,1.833-2.017,2.627l1.356.002c-.548.899-1.252,1.82-2.143,2.614l3.272.005-.039,1.415s.651.456,1.198.013l-.037-1.426,3.271.005Z" fill="#476927" stroke="#313d31" stroke-miterlimit="10" stroke-width=".5"/>
          <path d="M145.564,793.04s-1.155-.99-2.212-2.621l1.426.002s-1.182-1.012-2.09-2.634l1.39.002s-1.968-1.685-2.339-4.067c0,0-.553,2.456-2.353,4.059l1.317.002c-.47.878-1.126,1.833-2.017,2.627l1.356.002c-.548.899-1.252,1.82-2.143,2.614l3.272.005-.039,1.415s.651.456,1.198.013l-.037-1.426,3.271.005Z" fill="#476927" stroke="#313d31" stroke-miterlimit="10" stroke-width=".5"/>
          <path d="M141.314,798.257s-1.155-.99-2.212-2.621l1.426.002s-1.182-1.012-2.09-2.634l1.39.002s-1.968-1.685-2.339-4.067c0,0-.553,2.456-2.353,4.059l1.317.002c-.47.878-1.126,1.833-2.017,2.627l1.356.002c-.548.899-1.252,1.82-2.143,2.614l3.272.005-.039,1.415s.651.456,1.198.013l-.037-1.426,3.271.005Z" fill="#476927" stroke="#313d31" stroke-miterlimit="10" stroke-width=".5"/>
        </g>
        <g>
          <path d="M93.777,816.313s-1.155-.99-2.212-2.621l1.426.002s-1.182-1.012-2.09-2.634l1.39.002s-1.968-1.685-2.339-4.067c0,0-.553,2.456-2.353,4.059l1.317.002c-.47.878-1.126,1.833-2.017,2.627l1.356.002c-.548.899-1.252,1.82-2.143,2.614l3.272.005-.039,1.415s.651.456,1.198.013l-.037-1.426,3.271.005Z" fill="#476927" stroke="#313d31" stroke-miterlimit="10" stroke-width=".5"/>
          <path d="M102.072,816.342s-1.155-.99-2.212-2.621l1.426.002s-1.182-1.012-2.09-2.634l1.39.002s-1.968-1.685-2.339-4.067c0,0-.553,2.456-2.353,4.059l1.317.002c-.47.878-1.126,1.833-2.017,2.627l1.356.002c-.548.899-1.252,1.82-2.143,2.614l3.272.005-.039,1.415s.651.456,1.198.013l-.037-1.426,3.271.005Z" fill="#476927" stroke="#313d31" stroke-miterlimit="10" stroke-width=".5"/>
          <path d="M97.822,821.559s-1.155-.99-2.212-2.621l1.426.002s-1.182-1.012-2.09-2.634l1.39.002s-1.968-1.685-2.339-4.067c0,0-.553,2.456-2.353,4.059l1.317.002c-.47.878-1.126,1.833-2.017,2.627l1.356.002c-.548.899-1.252,1.82-2.143,2.614l3.272.005-.039,1.415s.651.456,1.198.013l-.037-1.426,3.271.005Z" fill="#476927" stroke="#313d31" stroke-miterlimit="10" stroke-width=".5"/>
        </g>
        <g>
          <path d="M202.184,473.252s-1.155-.99-2.212-2.621l1.426.002s-1.182-1.012-2.09-2.634l1.39.002s-1.968-1.685-2.339-4.067c0,0-.553,2.456-2.353,4.059l1.317.002c-.47.878-1.126,1.833-2.017,2.627l1.356.002c-.548.899-1.252,1.82-2.143,2.614l3.272.005-.039,1.415s.651.456,1.198.013l-.037-1.426,3.271.005Z" fill="#c1bb99" stroke="#313d31" stroke-miterlimit="10" stroke-width=".5"/>
          <path d="M210.478,473.281s-1.155-.99-2.212-2.621l1.426.002s-1.182-1.012-2.09-2.634l1.39.002s-1.968-1.685-2.339-4.067c0,0-.553,2.456-2.353,4.059l1.317.002c-.47.878-1.126,1.833-2.017,2.627l1.356.002c-.548.899-1.252,1.82-2.143,2.614l3.272.005-.039,1.415s.651.456,1.198.013l-.037-1.426,3.271.005Z" fill="#c1bb99" stroke="#313d31" stroke-miterlimit="10" stroke-width=".5"/>
          <path d="M206.229,478.499s-1.155-.99-2.212-2.621l1.426.002s-1.182-1.012-2.09-2.634l1.39.002s-1.968-1.685-2.339-4.067c0,0-.553,2.456-2.353,4.059l1.317.002c-.47.878-1.126,1.833-2.017,2.627l1.356.002c-.548.899-1.252,1.82-2.143,2.614l3.272.005-.039,1.415s.651.456,1.198.013l-.037-1.426,3.271.005Z" fill="#c1bb99" stroke="#313d31" stroke-miterlimit="10" stroke-width=".5"/>
        </g>
        <g>
          <path d="M354.285,523.249s-1.155-.99-2.212-2.621l1.426.002s-1.182-1.012-2.09-2.634l1.39.002s-1.968-1.685-2.339-4.067c0,0-.553,2.456-2.353,4.059l1.317.002c-.47.878-1.126,1.833-2.017,2.627l1.356.002c-.548.899-1.252,1.82-2.143,2.614l3.272.005-.039,1.415s.651.456,1.198.013l-.037-1.426,3.271.005Z" fill="#c1bb99" stroke="#313d31" stroke-miterlimit="10" stroke-width=".5"/>
          <path d="M362.58,523.278s-1.155-.99-2.212-2.621l1.426.002s-1.182-1.012-2.09-2.634l1.39.002s-1.968-1.685-2.339-4.067c0,0-.553,2.456-2.353,4.059l1.317.002c-.47.878-1.126,1.833-2.017,2.627l1.356.002c-.548.899-1.252,1.82-2.143,2.614l3.272.005-.039,1.415s.651.456,1.198.013l-.037-1.426,3.271.005Z" fill="#c1bb99" stroke="#313d31" stroke-miterlimit="10" stroke-width=".5"/>
          <path d="M358.33,528.496s-1.155-.99-2.212-2.621l1.426.002s-1.182-1.012-2.09-2.634l1.39.002s-1.968-1.685-2.339-4.067c0,0-.553,2.456-2.353,4.059l1.317.002c-.47.878-1.126,1.833-2.017,2.627l1.356.002c-.548.899-1.252,1.82-2.143,2.614l3.272.005-.039,1.415s.651.456,1.198.013l-.037-1.426,3.271.005Z" fill="#c1bb99" stroke="#313d31" stroke-miterlimit="10" stroke-width=".5"/>
        </g>
        <g>
          <path d="M163.018,762.596s-1.155-.99-2.212-2.621l1.426.002s-1.182-1.012-2.09-2.634l1.39.002s-1.968-1.685-2.339-4.067c0,0-.553,2.456-2.353,4.059l1.317.002c-.47.878-1.126,1.833-2.017,2.627l1.356.002c-.548.899-1.252,1.82-2.143,2.614l3.272.005-.039,1.415s.651.456,1.198.013l-.037-1.426,3.271.005Z" fill="#c1bb99" stroke="#313d31" stroke-miterlimit="10" stroke-width=".5"/>
          <path d="M171.313,762.626s-1.155-.99-2.212-2.621l1.426.002s-1.182-1.012-2.09-2.634l1.39.002s-1.968-1.685-2.339-4.067c0,0-.553,2.456-2.353,4.059l1.317.002c-.47.878-1.126,1.833-2.017,2.627l1.356.002c-.548.899-1.252,1.82-2.143,2.614l3.272.005-.039,1.415s.651.456,1.198.013l-.037-1.426,3.271.005Z" fill="#c1bb99" stroke="#313d31" stroke-miterlimit="10" stroke-width=".5"/>
          <path d="M167.063,767.843s-1.155-.99-2.212-2.621l1.426.002s-1.182-1.012-2.09-2.634l1.39.002s-1.968-1.685-2.339-4.067c0,0-.553,2.456-2.353,4.059l1.317.002c-.47.878-1.126,1.833-2.017,2.627l1.356.002c-.548.899-1.252,1.82-2.143,2.614l3.272.005-.039,1.415s.651.456,1.198.013l-.037-1.426,3.271.005Z" fill="#c1bb99" stroke="#313d31" stroke-miterlimit="10" stroke-width=".5"/>
        </g>
        <g>
          <path d="M293.135,743.071s-1.155-.99-2.212-2.621l1.426.002s-1.182-1.012-2.09-2.634l1.39.002s-1.968-1.685-2.339-4.067c0,0-.553,2.456-2.353,4.059l1.317.002c-.47.878-1.126,1.833-2.017,2.627l1.356.002c-.548.899-1.252,1.82-2.143,2.614l3.272.005-.039,1.415s.651.456,1.198.013l-.037-1.426,3.271.005Z" fill="#c1bb99" stroke="#313d31" stroke-miterlimit="10" stroke-width=".5"/>
          <path d="M301.43,743.1s-1.155-.99-2.212-2.621l1.426.002s-1.182-1.012-2.09-2.634l1.39.002s-1.968-1.685-2.339-4.067c0,0-.553,2.456-2.353,4.059l1.317.002c-.47.878-1.126,1.833-2.017,2.627l1.356.002c-.548.899-1.252,1.82-2.143,2.614l3.272.005-.039,1.415s.651.456,1.198.013l-.037-1.426,3.271.005Z" fill="#c1bb99" stroke="#313d31" stroke-miterlimit="10" stroke-width=".5"/>
          <path d="M297.18,748.317s-1.155-.99-2.212-2.621l1.426.002s-1.182-1.012-2.09-2.634l1.39.002s-1.968-1.685-2.339-4.067c0,0-.553,2.456-2.353,4.059l1.317.002c-.47.878-1.126,1.833-2.017,2.627l1.356.002c-.548.899-1.252,1.82-2.143,2.614l3.272.005-.039,1.415s.651.456,1.198.013l-.037-1.426,3.271.005Z" fill="#c1bb99" stroke="#313d31" stroke-miterlimit="10" stroke-width=".5"/>
        </g>
        <g>
          <path d="M278.294,870.083s-1.155-.99-2.212-2.621l1.426.002s-1.182-1.012-2.09-2.634l1.39.002s-1.968-1.685-2.339-4.067c0,0-.553,2.456-2.353,4.059l1.317.002c-.47.878-1.126,1.833-2.017,2.627l1.356.002c-.548.899-1.252,1.82-2.143,2.614l3.272.005-.039,1.415s.651.456,1.198.013l-.037-1.426,3.271.005Z" fill="#c1bb99" stroke="#313d31" stroke-miterlimit="10" stroke-width=".5"/>
          <path d="M286.589,870.113s-1.155-.99-2.212-2.621l1.426.002s-1.182-1.012-2.09-2.634l1.39.002s-1.968-1.685-2.339-4.067c0,0-.553,2.456-2.353,4.059l1.317.002c-.47.878-1.126,1.833-2.017,2.627l1.356.002c-.548.899-1.252,1.82-2.143,2.614l3.272.005-.039,1.415s.651.456,1.198.013l-.037-1.426,3.271.005Z" fill="#c1bb99" stroke="#313d31" stroke-miterlimit="10" stroke-width=".5"/>
          <path d="M282.339,875.33s-1.155-.99-2.212-2.621l1.426.002s-1.182-1.012-2.09-2.634l1.39.002s-1.968-1.685-2.339-4.067c0,0-.553,2.456-2.353,4.059l1.317.002c-.47.878-1.126,1.833-2.017,2.627l1.356.002c-.548.899-1.252,1.82-2.143,2.614l3.272.005-.039,1.415s.651.456,1.198.013l-.037-1.426,3.271.005Z" fill="#c1bb99" stroke="#313d31" stroke-miterlimit="10" stroke-width=".5"/>
        </g>
        <g>
          <path d="M162.945,983.087s-1.155-.99-2.212-2.621l1.426.002s-1.182-1.012-2.09-2.634l1.39.002s-1.968-1.685-2.339-4.067c0,0-.553,2.456-2.353,4.059l1.317.002c-.47.878-1.126,1.833-2.017,2.627l1.356.002c-.548.899-1.252,1.82-2.143,2.614l3.272.005-.039,1.415s.651.456,1.198.013l-.037-1.426,3.271.005Z" fill="#c1bb99" stroke="#313d31" stroke-miterlimit="10" stroke-width=".5"/>
          <path d="M171.239,983.116s-1.155-.99-2.212-2.621l1.426.002s-1.182-1.012-2.09-2.634l1.39.002s-1.968-1.685-2.339-4.067c0,0-.553,2.456-2.353,4.059l1.317.002c-.47.878-1.126,1.833-2.017,2.627l1.356.002c-.548.899-1.252,1.82-2.143,2.614l3.272.005-.039,1.415s.651.456,1.198.013l-.037-1.426,3.271.005Z" fill="#c1bb99" stroke="#313d31" stroke-miterlimit="10" stroke-width=".5"/>
          <path d="M166.99,988.333s-1.155-.99-2.212-2.621l1.426.002s-1.182-1.012-2.09-2.634l1.39.002s-1.968-1.685-2.339-4.067c0,0-.553,2.456-2.353,4.059l1.317.002c-.47.878-1.126,1.833-2.017,2.627l1.356.002c-.548.899-1.252,1.82-2.143,2.614l3.272.005-.039,1.415s.651.456,1.198.013l-.037-1.426,3.271.005Z" fill="#c1bb99" stroke="#313d31" stroke-miterlimit="10" stroke-width=".5"/>
        </g>
        <g>
          <path d="M274.777,1038.551s-1.155-.99-2.212-2.621l1.426.002s-1.182-1.012-2.09-2.634l1.39.002s-1.968-1.685-2.339-4.067c0,0-.553,2.456-2.353,4.059l1.317.002c-.47.878-1.126,1.833-2.017,2.627l1.356.002c-.548.899-1.252,1.82-2.143,2.614l3.272.005-.039,1.415s.651.456,1.198.013l-.037-1.426,3.271.005Z" fill="#c1bb99" stroke="#313d31" stroke-miterlimit="10" stroke-width=".5"/>
          <path d="M283.072,1038.58s-1.155-.99-2.212-2.621l1.426.002s-1.182-1.012-2.09-2.634l1.39.002s-1.968-1.685-2.339-4.067c0,0-.553,2.456-2.353,4.059l1.317.002c-.47.878-1.126,1.833-2.017,2.627l1.356.002c-.548.899-1.252,1.82-2.143,2.614l3.272.005-.039,1.415s.651.456,1.198.013l-.037-1.426,3.271.005Z" fill="#c1bb99" stroke="#313d31" stroke-miterlimit="10" stroke-width=".5"/>
          <path d="M278.822,1043.797s-1.155-.99-2.212-2.621l1.426.002s-1.182-1.012-2.09-2.634l1.39.002s-1.968-1.685-2.339-4.067c0,0-.553,2.456-2.353,4.059l1.317.002c-.47.878-1.126,1.833-2.017,2.627l1.356.002c-.548.899-1.252,1.82-2.143,2.614l3.272.005-.039,1.415s.651.456,1.198.013l-.037-1.426,3.271.005Z" fill="#c1bb99" stroke="#313d31" stroke-miterlimit="10" stroke-width=".5"/>
        </g>
        <g>
          <path d="M492.881,362.963s-1.155-.99-2.212-2.621l1.426.002s-1.182-1.012-2.09-2.634l1.39.002s-1.968-1.685-2.339-4.067c0,0-.553,2.456-2.353,4.059l1.317.002c-.47.878-1.126,1.833-2.017,2.627l1.356.002c-.548.899-1.252,1.82-2.143,2.614l3.272.005-.039,1.415s.651.456,1.198.013l-.037-1.426,3.271.005Z" fill="#c1bb99" stroke="#313d31" stroke-miterlimit="10" stroke-width=".5"/>
          <path d="M501.175,362.993s-1.155-.99-2.212-2.621l1.426.002s-1.182-1.012-2.09-2.634l1.39.002s-1.968-1.685-2.339-4.067c0,0-.553,2.456-2.353,4.059l1.317.002c-.47.878-1.126,1.833-2.017,2.627l1.356.002c-.548.899-1.252,1.82-2.143,2.614l3.272.005-.039,1.415s.651.456,1.198.013l-.037-1.426,3.271.005Z" fill="#c1bb99" stroke="#313d31" stroke-miterlimit="10" stroke-width=".5"/>
          <path d="M496.925,368.21s-1.155-.99-2.212-2.621l1.426.002s-1.182-1.012-2.09-2.634l1.39.002s-1.968-1.685-2.339-4.067c0,0-.553,2.456-2.353,4.059l1.317.002c-.47.878-1.126,1.833-2.017,2.627l1.356.002c-.548.899-1.252,1.82-2.143,2.614l3.272.005-.039,1.415s.651.456,1.198.013l-.037-1.426,3.271.005Z" fill="#c1bb99" stroke="#313d31" stroke-miterlimit="10" stroke-width=".5"/>
        </g>
        <g>
          <path d="M451.617,1069.392s-1.155-.99-2.212-2.621l1.426.002s-1.182-1.012-2.09-2.634l1.39.002s-1.968-1.685-2.339-4.067c0,0-.553,2.456-2.353,4.059l1.317.002c-.47.878-1.126,1.833-2.017,2.627l1.356.002c-.548.899-1.252,1.82-2.143,2.614l3.272.005-.039,1.415s.651.456,1.198.013l-.037-1.426,3.271.005Z" fill="#c1bb99" stroke="#313d31" stroke-miterlimit="10" stroke-width=".5"/>
          <path d="M459.912,1069.421s-1.155-.99-2.212-2.621l1.426.002s-1.182-1.012-2.09-2.634l1.39.002s-1.968-1.685-2.339-4.067c0,0-.553,2.456-2.353,4.059l1.317.002c-.47.878-1.126,1.833-2.017,2.627l1.356.002c-.548.899-1.252,1.82-2.143,2.614l3.272.005-.039,1.415s.651.456,1.198.013l-.037-1.426,3.271.005Z" fill="#c1bb99" stroke="#313d31" stroke-miterlimit="10" stroke-width=".5"/>
          <path d="M455.662,1074.638s-1.155-.99-2.212-2.621l1.426.002s-1.182-1.012-2.09-2.634l1.39.002s-1.968-1.685-2.339-4.067c0,0-.553,2.456-2.353,4.059l1.317.002c-.47.878-1.126,1.833-2.017,2.627l1.356.002c-.548.899-1.252,1.82-2.143,2.614l3.272.005-.039,1.415s.651.456,1.198.013l-.037-1.426,3.271.005Z" fill="#c1bb99" stroke="#313d31" stroke-miterlimit="10" stroke-width=".5"/>
        </g>
        <g>
          <path d="M552.269,257.86s-1.155-.99-2.212-2.621l1.426.002s-1.182-1.012-2.09-2.634l1.39.002s-1.968-1.685-2.339-4.067c0,0-.553,2.456-2.353,4.059l1.317.002c-.47.878-1.126,1.833-2.017,2.627l1.356.002c-.548.899-1.252,1.82-2.143,2.614l3.272.005-.039,1.415s.651.456,1.198.013l-.037-1.426,3.271.005Z" fill="#476927" stroke="#313d31" stroke-miterlimit="10" stroke-width=".5"/>
          <path d="M560.563,257.89s-1.155-.99-2.212-2.621l1.426.002s-1.182-1.012-2.09-2.634l1.39.002s-1.968-1.685-2.339-4.067c0,0-.553,2.456-2.353,4.059l1.317.002c-.47.878-1.126,1.833-2.017,2.627l1.356.002c-.548.899-1.252,1.82-2.143,2.614l3.272.005-.039,1.415s.651.456,1.198.013l-.037-1.426,3.271.005Z" fill="#476927" stroke="#313d31" stroke-miterlimit="10" stroke-width=".5"/>
          <path d="M556.313,263.107s-1.155-.99-2.212-2.621l1.426.002s-1.182-1.012-2.09-2.634l1.39.002s-1.968-1.685-2.339-4.067c0,0-.553,2.456-2.353,4.059l1.317.002c-.47.878-1.126,1.833-2.017,2.627l1.356.002c-.548.899-1.252,1.82-2.143,2.614l3.272.005-.039,1.415s.651.456,1.198.013l-.037-1.426,3.271.005Z" fill="#476927" stroke="#313d31" stroke-miterlimit="10" stroke-width=".5"/>
        </g>
        <g>
          <path d="M322.879,220.573s-1.155-.99-2.212-2.621l1.426.002s-1.182-1.012-2.09-2.634l1.39.002s-1.968-1.685-2.339-4.067c0,0-.553,2.456-2.353,4.059l1.317.002c-.47.878-1.126,1.833-2.017,2.627l1.356.002c-.548.899-1.252,1.82-2.143,2.614l3.272.005-.039,1.415s.651.456,1.198.013l-.037-1.426,3.271.005Z" fill="#476927" stroke="#313d31" stroke-miterlimit="10" stroke-width=".5"/>
          <path d="M331.173,220.602s-1.155-.99-2.212-2.621l1.426.002s-1.182-1.012-2.09-2.634l1.39.002s-1.968-1.685-2.339-4.067c0,0-.553,2.456-2.353,4.059l1.317.002c-.47.878-1.126,1.833-2.017,2.627l1.356.002c-.548.899-1.252,1.82-2.143,2.614l3.272.005-.039,1.415s.651.456,1.198.013l-.037-1.426,3.271.005Z" fill="#476927" stroke="#313d31" stroke-miterlimit="10" stroke-width=".5"/>
          <path d="M326.923,225.819s-1.155-.99-2.212-2.621l1.426.002s-1.182-1.012-2.09-2.634l1.39.002s-1.968-1.685-2.339-4.067c0,0-.553,2.456-2.353,4.059l1.317.002c-.47.878-1.126,1.833-2.017,2.627l1.356.002c-.548.899-1.252,1.82-2.143,2.614l3.272.005-.039,1.415s.651.456,1.198.013l-.037-1.426,3.271.005Z" fill="#476927" stroke="#313d31" stroke-miterlimit="10" stroke-width=".5"/>
        </g>
        <g>
          <path d="M327.069,142.859s-1.155-.99-2.212-2.621l1.426.002s-1.182-1.012-2.09-2.634l1.39.002s-1.968-1.685-2.339-4.067c0,0-.553,2.456-2.353,4.059l1.317.002c-.47.878-1.126,1.833-2.017,2.627l1.356.002c-.548.899-1.252,1.82-2.143,2.614l3.272.005-.039,1.415s.651.456,1.198.013l-.037-1.426,3.271.005Z" fill="#476927" stroke="#313d31" stroke-miterlimit="10" stroke-width=".5"/>
          <path d="M335.364,142.888s-1.155-.99-2.212-2.621l1.426.002s-1.182-1.012-2.09-2.634l1.39.002s-1.968-1.685-2.339-4.067c0,0-.553,2.456-2.353,4.059l1.317.002c-.47.878-1.126,1.833-2.017,2.627l1.356.002c-.548.899-1.252,1.82-2.143,2.614l3.272.005-.039,1.415s.651.456,1.198.013l-.037-1.426,3.271.005Z" fill="#476927" stroke="#313d31" stroke-miterlimit="10" stroke-width=".5"/>
          <path d="M331.114,148.105s-1.155-.99-2.212-2.621l1.426.002s-1.182-1.012-2.09-2.634l1.39.002s-1.968-1.685-2.339-4.067c0,0-.553,2.456-2.353,4.059l1.317.002c-.47.878-1.126,1.833-2.017,2.627l1.356.002c-.548.899-1.252,1.82-2.143,2.614l3.272.005-.039,1.415s.651.456,1.198.013l-.037-1.426,3.271.005Z" fill="#476927" stroke="#313d31" stroke-miterlimit="10" stroke-width=".5"/>
        </g>
        <g>
          <path d="M370.434,51.494s-1.155-.99-2.212-2.621l1.426.002s-1.182-1.012-2.09-2.634l1.39.002s-1.968-1.685-2.339-4.067c0,0-.553,2.456-2.353,4.059l1.317.002c-.47.878-1.126,1.833-2.017,2.627l1.356.002c-.548.899-1.252,1.82-2.143,2.614l3.272.005-.039,1.415s.651.456,1.198.013l-.037-1.426,3.271.005Z" fill="#476927" stroke="#313d31" stroke-miterlimit="10" stroke-width=".5"/>
          <path d="M378.729,51.523s-1.155-.99-2.212-2.621l1.426.002s-1.182-1.012-2.09-2.634l1.39.002s-1.968-1.685-2.339-4.067c0,0-.553,2.456-2.353,4.059l1.317.002c-.47.878-1.126,1.833-2.017,2.627l1.356.002c-.548.899-1.252,1.82-2.143,2.614l3.272.005-.039,1.415s.651.456,1.198.013l-.037-1.426,3.271.005Z" fill="#476927" stroke="#313d31" stroke-miterlimit="10" stroke-width=".5"/>
          <path d="M374.479,56.74s-1.155-.99-2.212-2.621l1.426.002s-1.182-1.012-2.09-2.634l1.39.002s-1.968-1.685-2.339-4.067c0,0-.553,2.456-2.353,4.059l1.317.002c-.47.878-1.126,1.833-2.017,2.627l1.356.002c-.548.899-1.252,1.82-2.143,2.614l3.272.005-.039,1.415s.651.456,1.198.013l-.037-1.426,3.271.005Z" fill="#476927" stroke="#313d31" stroke-miterlimit="10" stroke-width=".5"/>
        </g>
      </g>
    </g>
  </g>
<style>
#g-Sweden_NPs-Artboard_1-img rect, #g-Sweden_NPs-Artboard_1-img circle, #g-Sweden_NPs-Artboard_1-img path, #g-Sweden_NPs-Artboard_1-img line, #g-Sweden_NPs-Artboard_1-img polyline, #g-Sweden_NPs-Artboard_1-img polygon { vector-effect: non-scaling-stroke; }
</style>
</svg>
